<svg version="1.1" viewBox="278 274 450 466" xmlns="http://www.w3.org/2000/svg" style="max-height: 500px" width="450" height="466"><path fill-rule="evenodd" fill="none" stroke="none" d="M 0 500.001 L 0 1000.002 500.250 999.751 L 1000.500 999.500 1000.751 499.750 L 1001.002 0 500.501 0 L 0 0 0 500.001 M 0.496 500.500 C 0.496 775.500, 0.610 887.851, 0.750 750.168 C 0.890 612.486, 0.890 387.486, 0.750 250.168 C 0.610 112.851, 0.496 225.500, 0.496 500.500 M 475 284.903 C 469.977 287.534, 468.925 288, 468.003 288 C 467.439 288, 465.071 288.849, 462.739 289.887 C 460.408 290.925, 454.675 293.218, 450 294.982 C 440.040 298.742, 437.127 299.914, 434.764 301.117 C 433.809 301.603, 432.566 302, 432.003 302 C 431.439 302, 429.071 302.847, 426.739 303.882 C 424.408 304.917, 420.925 306.320, 419 307 C 417.075 307.680, 413.592 309.083, 411.261 310.118 C 408.929 311.153, 406.561 312, 405.997 312 C 405.434 312, 404.079 312.450, 402.986 313 C 401.894 313.550, 400.106 314.450, 399.014 315 C 397.921 315.550, 396.566 316, 396.003 316 C 395.439 316, 393.071 316.847, 390.739 317.882 C 388.408 318.917, 384.925 320.312, 383 320.983 C 378.685 322.486, 375.048 323.955, 372.764 325.117 C 371.809 325.603, 370.566 326, 370.003 326 C 369.439 326, 367.071 326.862, 364.739 327.916 C 362.408 328.970, 358.700 330.413, 356.500 331.123 C 351.256 332.815, 349.490 334.354, 349.233 337.454 C 349.059 339.556, 349.456 340, 351.511 340 L 354 340 354 454 L 354 568 334.978 568 L 315.956 568 316.228 549.250 L 316.500 530.500 320.500 530.183 C 322.700 530.009, 324.928 529.446, 325.450 528.933 C 325.973 528.420, 327.210 528, 328.200 528 C 329.190 528, 330 527.550, 330 527 C 330 526.450, 330.630 526, 331.400 526 C 333.374 526, 339.781 519.360, 341.929 515.087 C 345.452 508.079, 346.515 501.553, 345.079 495.750 C 341.371 480.763, 330.617 472, 315.937 472 C 309.879 472, 307.789 472.487, 302.660 475.093 C 293.731 479.631, 289.257 485.444, 287.100 495.310 C 285.739 501.535, 286.588 507.968, 289.676 514.836 C 291.404 518.680, 298.581 526, 300.621 526 C 301.379 526, 302 526.450, 302 527 C 302 527.550, 302.873 528, 303.941 528 C 305.009 528, 306.160 528.450, 306.500 529 C 306.840 529.550, 308.666 530, 310.559 530 L 314 530 314 549 L 314 568 310 568 C 307.111 568, 306 568.417, 306 569.500 C 306 570.828, 328.287 571, 500.583 571 C 655.803 571, 695.083 570.747, 694.755 569.750 C 694.529 569.063, 693.366 568.356, 692.172 568.180 C 690.047 567.868, 690 567.515, 690 551.966 C 690 537.274, 690.146 535.992, 691.934 535.035 C 692.998 534.466, 694.830 534, 696.004 534 C 698.065 534, 706.712 528.754, 708.254 526.569 C 712.979 519.868, 714 516.753, 714 509.032 C 714 504.679, 713.550 500.840, 713 500.500 C 712.450 500.160, 712 499.239, 712 498.452 C 712 495.436, 702.583 486, 699.572 486 C 698.799 486, 697.997 485.491, 697.790 484.869 C 697.553 484.159, 694.455 483.725, 689.456 483.703 C 683.113 483.674, 680.611 484.124, 677.116 485.922 C 670.359 489.398, 665.804 494.671, 663.266 501.955 C 661.840 506.046, 661.588 514.628, 662.871 515.420 C 663.350 515.716, 664.011 517.305, 664.340 518.951 C 664.935 521.927, 672.505 530.393, 676.603 532.667 C 677.760 533.308, 680.797 534.147, 683.353 534.530 L 688 535.227 688 551.614 L 688 568 668 568 L 648 568 648 529 L 648 490 651.981 490 C 656.990 490, 657.173 489.374, 656.790 473.500 L 656.500 461.500 646.249 461.500 L 635.997 461.500 635.999 436.750 C 636 409.058, 635.575 410.391, 643.261 413.979 C 645.592 415.067, 648.625 416.080, 650 416.229 C 652.224 416.470, 652.534 416.087, 652.810 412.762 C 653.136 408.817, 652.752 408.499, 643.250 404.861 C 642.013 404.388, 639.987 403.580, 638.750 403.066 C 637.513 402.552, 634.700 401.542, 632.500 400.821 C 630.300 400.101, 628.275 399.281, 628 399 C 627.725 398.719, 625.700 397.899, 623.500 397.179 C 619.246 395.784, 615.598 394.325, 612.764 392.883 C 611.809 392.397, 610.566 392, 610.003 392 C 609.439 392, 607.071 391.153, 604.739 390.118 C 602.408 389.083, 598.925 387.680, 597 387 C 595.075 386.320, 591.592 384.917, 589.261 383.882 C 586.929 382.847, 584.561 382, 583.997 382 C 583.434 382, 582.191 381.603, 581.236 381.117 C 578.402 379.675, 574.754 378.216, 570.500 376.821 C 568.300 376.101, 566.275 375.281, 566 375 C 565.725 374.719, 563.700 373.899, 561.500 373.179 C 559.300 372.458, 556.375 371.387, 555 370.800 C 553.625 370.213, 551.487 369.343, 550.250 368.866 C 549.013 368.390, 546.763 367.490, 545.250 366.866 C 541.491 365.316, 539.113 364.415, 535 362.983 C 533.075 362.312, 529.700 360.977, 527.500 360.016 C 525.300 359.055, 521.700 357.667, 519.500 356.930 C 517.300 356.194, 515.072 355.234, 514.550 354.796 C 514.027 354.358, 513.010 354, 512.289 354 C 511.568 354, 509.071 353.151, 506.739 352.113 C 504.408 351.075, 498.675 348.782, 494 347.018 C 483.761 343.153, 481.746 342.349, 478.500 340.831 L 476 339.662 476 315.831 C 476 292.809, 476.067 292, 477.965 292 C 480.135 292, 482 289.258, 482 286.066 C 482 284.465, 481.381 284.013, 479.250 284.059 C 477.738 284.091, 475.825 284.471, 475 284.903 M 472.568 288.889 C 472.266 289.378, 470.777 290.088, 469.259 290.466 C 467.742 290.845, 465.150 291.742, 463.500 292.460 C 461.850 293.178, 458.925 294.322, 457 295.001 C 455.075 295.681, 451.592 297.083, 449.261 298.118 C 446.929 299.153, 444.368 300, 443.570 300 C 442.771 300, 441.892 300.365, 441.616 300.812 C 441.340 301.259, 437.826 302.706, 433.807 304.028 C 429.788 305.349, 426.275 306.674, 426 306.971 C 425.725 307.268, 423.700 308.109, 421.500 308.839 C 419.300 309.570, 415.592 311.030, 413.261 312.084 C 410.929 313.138, 408.368 314, 407.570 314 C 406.771 314, 405.840 314.450, 405.500 315 C 405.160 315.550, 403.784 316, 402.441 316 C 401.098 316, 400 316.369, 400 316.819 C 400 317.270, 397.750 318.251, 395 319 C 392.250 319.749, 390 320.632, 390 320.962 C 390 321.293, 387.863 322.187, 385.250 322.950 C 380.690 324.281, 379.405 324.789, 375.014 327 C 373.921 327.550, 372.566 328, 372.003 328 C 371.439 328, 369.071 328.862, 366.739 329.916 C 364.408 330.970, 360.700 332.414, 358.500 333.124 C 356.300 333.835, 353.938 334.828, 353.250 335.331 C 351.340 336.727, 351.737 338.151, 353.750 337.125 C 354.712 336.635, 356.738 335.731, 358.250 335.117 C 359.762 334.503, 362.012 333.580, 363.250 333.066 C 364.488 332.552, 367.300 331.542, 369.500 330.821 C 371.700 330.101, 373.725 329.281, 374 329 C 374.275 328.719, 376.300 327.899, 378.500 327.179 C 380.700 326.458, 383.512 325.448, 384.750 324.934 C 389.103 323.127, 391.533 322.190, 395 320.983 C 396.925 320.312, 400.408 318.917, 402.739 317.882 C 405.071 316.847, 407.439 316, 408.003 316 C 408.566 316, 409.809 315.603, 410.764 315.117 C 413.162 313.897, 416.140 312.701, 426 309 C 430.675 307.245, 435.512 305.402, 436.750 304.905 C 442.522 302.584, 443.726 302.123, 447 300.983 C 448.925 300.312, 452.408 298.917, 454.739 297.882 C 457.071 296.847, 459.568 296, 460.289 296 C 461.010 296, 462.028 295.602, 462.550 295.116 C 463.072 294.631, 466.425 293.228, 470 292 C 477.544 289.408, 479.572 288, 475.759 288 C 474.306 288, 472.871 288.400, 472.568 288.889 M 439 318.943 C 437.084 319.997, 433.442 321.475, 429 323 C 425.557 324.182, 423.200 325.087, 418.750 326.934 C 417.512 327.448, 414.700 328.441, 412.500 329.142 C 410.300 329.844, 408.050 330.692, 407.500 331.028 C 406.950 331.365, 404.587 332.243, 402.250 332.980 L 398 334.320 398 381.160 L 398 428 421 428 L 444 428 444 373 C 444 321.263, 443.896 318.003, 442.250 318.059 C 441.288 318.091, 439.825 318.489, 439 318.943 M 468.450 341.082 C 467.357 342.850, 469.788 344.604, 477.237 347.419 C 485.473 350.531, 487.468 351.306, 491 352.765 C 492.375 353.333, 495.075 354.339, 497 355 C 501.234 356.454, 504.901 357.929, 507.236 359.117 C 508.191 359.603, 509.434 360, 509.997 360 C 510.561 360, 512.929 360.847, 515.261 361.882 C 517.592 362.917, 521.075 364.320, 523 365 C 524.925 365.680, 528.408 367.083, 530.739 368.118 C 533.071 369.153, 535.632 370, 536.430 370 C 537.229 370, 538.160 370.450, 538.500 371 C 538.840 371.550, 539.907 372, 540.871 372 C 541.835 372, 544.487 372.900, 546.764 374 C 549.041 375.100, 551.381 376, 551.965 376 C 552.549 376, 553.809 376.397, 554.764 376.883 C 557.598 378.325, 561.246 379.784, 565.500 381.179 C 567.700 381.899, 569.725 382.719, 570 383 C 570.275 383.281, 572.300 384.101, 574.500 384.821 C 576.700 385.542, 579.513 386.552, 580.750 387.066 C 585.103 388.873, 587.533 389.810, 591 391.017 C 592.925 391.688, 596.408 393.083, 598.739 394.118 C 601.071 395.153, 603.439 396, 604.003 396 C 604.566 396, 605.809 396.397, 606.764 396.883 C 609.598 398.325, 613.246 399.784, 617.500 401.179 C 619.700 401.899, 621.725 402.719, 622 403 C 622.275 403.281, 624.300 404.101, 626.500 404.821 C 628.700 405.542, 631.513 406.552, 632.750 407.066 C 633.987 407.580, 636.013 408.420, 637.250 408.934 C 638.487 409.448, 641.300 410.441, 643.500 411.142 C 645.700 411.844, 648.063 412.828, 648.750 413.331 C 649.631 413.975, 650 413.690, 650 412.367 C 650 410.470, 648.191 409.420, 640.500 406.848 C 638.300 406.113, 636.275 405.281, 636 405 C 635.725 404.719, 633.700 403.899, 631.500 403.179 C 627.540 401.881, 626.088 401.335, 620.750 399.134 C 619.237 398.510, 616.987 397.610, 615.750 397.134 C 614.513 396.657, 612.375 395.787, 611 395.200 C 609.625 394.613, 606.700 393.542, 604.500 392.821 C 602.300 392.101, 600.275 391.281, 600 391 C 599.725 390.719, 597.700 389.899, 595.500 389.179 C 591.246 387.784, 587.598 386.325, 584.764 384.883 C 583.809 384.397, 582.566 384, 582.003 384 C 581.439 384, 579.071 383.153, 576.739 382.118 C 574.408 381.083, 570.925 379.680, 569 379 C 567.075 378.320, 563.592 376.917, 561.261 375.882 C 558.929 374.847, 556.561 374, 555.997 374 C 555.434 374, 554.191 373.603, 553.236 373.117 C 550.402 371.675, 546.754 370.216, 542.500 368.821 C 540.300 368.101, 538.275 367.281, 538 367 C 537.725 366.719, 535.700 365.899, 533.500 365.179 C 529.540 363.881, 528.088 363.335, 522.750 361.134 C 521.237 360.510, 518.763 359.490, 517.250 358.866 C 511.912 356.665, 510.460 356.119, 506.500 354.821 C 504.300 354.101, 502.275 353.281, 502 353 C 501.725 352.719, 499.700 351.891, 497.500 351.161 C 495.300 350.430, 491.592 348.970, 489.261 347.916 C 486.929 346.862, 484.562 346, 484 346 C 483.438 346, 481.071 345.164, 478.739 344.142 C 470.069 340.341, 469.088 340.049, 468.450 341.082 M 476 405.750 L 476 461.500 554.185 461.232 C 597.186 461.084, 632.489 460.845, 632.635 460.699 C 632.780 460.553, 633.035 449.146, 633.200 435.349 L 633.500 410.265 631 409.259 C 629.625 408.706, 626.925 407.701, 625 407.026 C 620.641 405.497, 617.022 404.032, 614.764 402.883 C 613.809 402.397, 612.566 402, 612.003 402 C 611.439 402, 609.071 401.153, 606.739 400.118 C 604.408 399.083, 600.925 397.688, 599 397.017 C 594.685 395.514, 591.048 394.045, 588.764 392.883 C 587.809 392.397, 586.549 392, 585.965 392 C 585.381 392, 583.172 391.164, 581.056 390.141 C 578.940 389.119, 575.137 387.671, 572.604 386.923 C 570.072 386.175, 568 385.212, 568 384.782 C 568 384.352, 566.902 384, 565.559 384 C 564.216 384, 562.895 383.639, 562.622 383.198 C 562.350 382.757, 559.848 381.776, 557.063 381.017 C 554.279 380.259, 552 379.368, 552 379.038 C 552 378.707, 549.862 377.813, 547.250 377.050 C 544.638 376.288, 541.712 375.289, 540.750 374.832 C 539.788 374.374, 538.212 373.626, 537.250 373.168 C 536.288 372.711, 533.362 371.712, 530.750 370.950 C 528.138 370.187, 526 369.293, 526 368.962 C 526 368.632, 523.750 367.749, 521 367 C 518.250 366.251, 516 365.270, 516 364.819 C 516 364.369, 514.902 364, 513.559 364 C 512.216 364, 510.895 363.639, 510.622 363.198 C 510.350 362.757, 507.848 361.776, 505.063 361.017 C 502.279 360.259, 500 359.368, 500 359.038 C 500 358.707, 497.863 357.813, 495.250 357.050 C 492.637 356.288, 489.825 355.342, 489 354.949 C 488.175 354.555, 486.375 353.787, 485 353.241 C 483.625 352.695, 481.241 351.743, 479.703 351.125 C 478.165 350.506, 476.702 350, 476.453 350 C 476.204 350, 476 375.087, 476 405.750 M 483.240 407.729 L 483.500 456.500 555.500 456.500 L 627.500 456.500 627.769 434.379 L 628.038 412.258 625.019 411.129 C 623.358 410.508, 620.538 409.505, 618.750 408.899 C 616.962 408.294, 614.487 407.394, 613.250 406.899 C 612.013 406.405, 609.987 405.595, 608.750 405.101 C 607.513 404.606, 604.925 403.661, 603 403 C 599.028 401.636, 596.595 400.720, 593 399.235 C 591.625 398.667, 588.925 397.661, 587 397 C 583.554 395.817, 581.186 394.908, 576.750 393.066 C 575.513 392.552, 571.575 391.172, 568 390 C 561.684 387.929, 560.243 387.401, 555 385.235 C 553.625 384.667, 550.925 383.661, 549 383 C 547.075 382.339, 544.487 381.394, 543.250 380.899 C 542.013 380.405, 539.987 379.595, 538.750 379.101 C 537.513 378.606, 534.925 377.661, 533 377 C 531.075 376.339, 528.375 375.333, 527 374.765 C 521.757 372.599, 520.316 372.071, 514 370 C 510.425 368.828, 506.375 367.388, 505 366.801 C 500.531 364.891, 498.566 364.153, 494.500 362.858 C 492.300 362.156, 490.050 361.289, 489.500 360.929 C 488.950 360.570, 487.258 359.979, 485.740 359.616 L 482.981 358.957 483.240 407.729 M 432.886 362.219 C 432.124 362.960, 429.925 364.670, 428 366.019 C 426.075 367.368, 423.825 369.026, 423 369.703 C 415.735 375.666, 404.069 384.417, 402.250 385.268 C 399.641 386.489, 399.279 388, 401.596 388 C 403.295 388, 407.896 385.024, 411.990 381.278 C 413.359 380.025, 414.779 379, 415.145 379 C 415.511 379, 417.766 377.422, 420.155 375.493 C 426.148 370.655, 426.078 370.709, 429.973 367.955 C 435.439 364.091, 436.394 362.994, 435.271 361.871 C 434.605 361.205, 433.810 361.320, 432.886 362.219 M 486 386.878 L 486 412 500.607 412 C 513.516 412, 515.143 411.816, 514.607 410.418 C 514.273 409.548, 514 400.646, 514 390.637 L 514 372.437 509.250 371.050 C 506.637 370.288, 503.825 369.342, 503 368.949 C 499.858 367.451, 496.360 366.087, 492.500 364.858 C 490.300 364.156, 487.938 363.172, 487.250 362.669 C 486.259 361.944, 486 366.959, 486 386.878 M 410 372.784 C 410 373.216, 408.762 374.301, 407.250 375.196 C 403.911 377.172, 400 380.501, 400 381.367 C 400 381.715, 400.900 382, 402 382 C 403.100 382, 404.003 381.663, 404.007 381.250 C 404.011 380.837, 405.698 379.379, 407.757 378.009 C 411.987 375.194, 413.088 373.951, 412.375 372.798 C 411.740 371.770, 410 371.761, 410 372.784 M 429.500 373.072 C 428.950 373.607, 427.156 375.237, 425.514 376.694 C 421.697 380.079, 423.783 380.986, 428.235 377.877 C 431.595 375.530, 432.958 374.059, 432.985 372.750 C 433.006 371.694, 430.697 371.908, 429.500 373.072 M 517.393 375.582 C 517.727 376.452, 518 385.002, 518 394.582 L 518 412 536 412 L 554 412 554 400.122 C 554 391.798, 553.626 387.958, 552.750 387.287 C 552.063 386.761, 548.015 385.243, 543.755 383.915 C 539.495 382.587, 536.008 381.163, 536.005 380.750 C 536.002 380.337, 534.902 380, 533.559 380 C 532.216 380, 530.895 379.639, 530.622 379.198 C 530.350 378.757, 527.820 377.768, 525 377 C 522.180 376.232, 519.650 375.243, 519.378 374.802 C 518.462 373.321, 516.779 373.982, 517.393 375.582 M 556 399.878 L 556 412 572.250 412 L 588.500 412 588.420 406.445 C 588.330 400.220, 587.708 399.611, 578.728 396.960 C 576.128 396.192, 574 395.212, 574 394.782 C 574 394.352, 572.965 394, 571.700 394 C 570.435 394, 568.972 393.628, 568.450 393.174 C 567.928 392.720, 565.475 391.738, 563 390.994 C 560.525 390.249, 557.938 389.216, 557.250 388.697 C 556.267 387.956, 556 390.344, 556 399.878 M 540.390 391.627 C 538.250 393.072, 536.275 394.556, 536 394.925 C 535.725 395.294, 533.925 396.685, 532 398.015 C 530.075 399.346, 527.902 401.014, 527.172 401.724 C 526.442 402.433, 524.979 403.476, 523.922 404.042 C 522.865 404.607, 522 405.714, 522 406.501 C 522 408.206, 528.051 404.974, 531.795 401.271 C 533.058 400.022, 534.413 399, 534.806 399 C 535.199 399, 536.648 397.954, 538.027 396.676 C 539.405 395.398, 541.763 393.546, 543.266 392.561 C 545.924 390.820, 546.881 389, 545.140 389 C 544.666 389, 542.529 390.182, 540.390 391.627 M 525.861 395.967 C 523.598 397.852, 523.585 397.935, 525.550 397.967 C 527.606 398, 530 396.297, 530 394.800 C 530 393.440, 528.328 393.911, 525.861 395.967 M 539.189 398.039 C 536.878 400.192, 536.332 402, 537.992 402 C 539.255 402, 544 397.908, 544 396.820 C 544 395.317, 541.404 395.975, 539.189 398.039 M 591.949 402.143 C 591.922 402.339, 591.791 404.637, 591.659 407.250 L 591.420 412 604.769 412 C 613.414 412, 617.900 411.648, 617.500 411 C 617.160 410.450, 616.002 410, 614.927 410 C 613.852 410, 612.191 409.603, 611.236 409.117 C 608.176 407.560, 604.615 406.138, 600 404.631 C 597.525 403.823, 594.712 402.852, 593.750 402.474 C 592.788 402.096, 591.977 401.947, 591.949 402.143 M 486 434 L 486 454 500.250 453.999 L 514.500 453.999 514.500 433.999 L 514.500 413.999 500.250 414 L 486 414 486 434 M 517.978 414.250 C 517.966 414.387, 517.854 423.388, 517.728 434.250 L 517.500 454 535.750 454 L 554 454 554 434 L 554 414 536 414 C 526.100 414, 517.990 414.113, 517.978 414.250 M 556 434.025 L 556 454.050 572.028 453.775 L 588.057 453.500 588.278 433.749 L 588.500 413.999 572.250 413.999 L 556 414 556 434.025 M 591.722 433.749 L 591.943 453.500 607.972 453.775 L 624 454.050 624 434.025 L 624 414 607.750 413.999 L 591.500 413.999 591.722 433.749 M 507.114 426.016 C 505.252 427.657, 503.452 429.007, 503.114 429.016 C 502.777 429.025, 500.939 430.407, 499.031 432.089 C 497.123 433.770, 494.386 435.840, 492.949 436.689 C 489.460 438.750, 487.366 442, 489.527 442 C 490.377 442, 492.068 441.088, 493.286 439.972 C 495.226 438.195, 498.285 435.823, 509.353 427.513 C 511.821 425.660, 512.951 422.980, 511.250 423.016 C 510.837 423.025, 508.977 424.375, 507.114 426.016 M 579.547 426.306 C 577.923 427.513, 575.540 429.512, 574.252 430.750 C 572.963 431.988, 571.592 433.007, 571.205 433.016 C 570.817 433.025, 569.080 434.262, 567.344 435.766 C 565.608 437.270, 563.358 439.010, 562.344 439.633 C 561.330 440.256, 560.838 441.119, 561.252 441.551 C 562.076 442.413, 565.958 440.603, 568.733 438.063 C 569.705 437.173, 572.075 435.355, 574 434.021 C 575.925 432.687, 577.725 431.328, 578 431 C 578.275 430.672, 579.962 429.382, 581.750 428.134 C 585.074 425.812, 585.984 423.956, 583.750 424.056 C 583.063 424.086, 581.171 425.099, 579.547 426.306 M 493.250 429.496 C 490.549 432.564, 492.533 434.324, 495.429 431.429 C 496.293 430.564, 497 429.439, 497 428.929 C 497 427.531, 494.669 427.884, 493.250 429.496 M 565.750 430.080 C 564.034 431.080, 563.275 434.031, 564.750 433.968 C 566.105 433.911, 569 431.303, 569 430.140 C 569 428.751, 568.061 428.734, 565.750 430.080 M 506.004 432.496 C 504.714 433.869, 503.902 435.236, 504.200 435.533 C 505.291 436.625, 510 433.626, 510 431.839 C 510 429.331, 508.790 429.530, 506.004 432.496 M 578.250 432.944 C 576.003 434.818, 575.247 437, 576.844 437 C 577.938 437, 583 432.656, 583 431.718 C 583 430.405, 580.529 431.042, 578.250 432.944 M 397.999 491.750 L 397.997 539.500 414.249 539.235 C 423.187 539.089, 432.869 538.864, 435.765 538.735 L 441.030 538.500 441.265 491.250 L 441.500 444 419.750 444 L 398 444 397.999 491.750 M 468.500 475 L 468.500 486 561.250 486 L 654 486 654 475 L 654 464 561.250 464 L 468.500 464 468.500 475 M 425.458 481.285 C 421.734 483.500, 417 487.364, 417 488.188 C 417 489.900, 419.867 488.878, 423.114 486.010 C 424.977 484.365, 427.288 482.760, 428.250 482.442 C 430.253 481.782, 430.627 479.982, 428.750 480.035 C 428.063 480.055, 426.581 480.617, 425.458 481.285 M 429.973 487.055 C 426.963 489.286, 423.751 491.723, 422.836 492.472 C 421.921 493.220, 416.859 497.075, 411.586 501.038 C 406.314 505.001, 402 508.639, 402 509.122 C 402 511.326, 404.858 509.611, 416.915 500.173 C 418.793 498.703, 422.618 495.851, 425.415 493.835 C 432.880 488.455, 437 484.922, 437 483.902 C 437 482.279, 435.526 482.941, 429.973 487.055 M 468.500 529 L 468.500 568 533 568.001 L 597.500 568.001 597.213 533.001 L 596.926 498 615.463 498 L 634 498 634 533 L 634 568 639.250 568 L 644.500 568.001 644.227 529 L 643.954 490 556.227 490 L 468.500 490 468.500 529 M 408.099 493.395 C 406.862 494.711, 406.275 496.052, 406.794 496.373 C 407.755 496.966, 413 493.032, 413 491.718 C 413 490.174, 410.237 491.119, 408.099 493.395 M 428.250 496.584 C 425.444 498.795, 423.852 502, 425.559 502 C 426.564 502, 434 495.686, 434 494.833 C 434 493.262, 431.498 494.024, 428.250 496.584 M 485.607 497.582 C 485.273 498.452, 485 506.290, 485 515 C 485 523.710, 485.273 531.548, 485.607 532.418 C 486.494 534.731, 501.506 534.731, 502.393 532.418 C 503.184 530.357, 503.184 499.643, 502.393 497.582 C 501.911 496.327, 500.177 496, 494 496 C 487.823 496, 486.089 496.327, 485.607 497.582 M 513.238 497.162 C 511.937 498.463, 511.386 529.237, 512.607 532.418 C 513.094 533.687, 514.878 534, 521.629 534 L 530.044 534 529.772 515.250 L 529.500 496.500 521.988 496.212 C 517.003 496.021, 514.059 496.341, 513.238 497.162 M 538 515 L 538 534 546.393 534 C 553.124 534, 554.906 533.687, 555.393 532.418 C 556.585 529.312, 556.066 498.466, 554.800 497.200 C 554.072 496.472, 550.533 496, 545.800 496 L 538 496 538 515 M 564.667 496.667 C 564.300 497.033, 564 505.583, 564 515.667 L 564 534 572.393 534 C 579.124 534, 580.906 533.687, 581.393 532.418 C 582.585 529.312, 582.066 498.466, 580.800 497.200 C 579.534 495.934, 565.851 495.482, 564.667 496.667 M 488.417 499.917 C 488.188 500.146, 488.001 501.721, 488.003 503.417 C 488.006 506.338, 488.216 506.503, 492.003 506.549 C 495.924 506.597, 496 506.530, 496 503.049 C 496 499.644, 495.855 499.500, 492.417 499.500 C 490.446 499.500, 488.646 499.688, 488.417 499.917 M 519.750 499.728 C 516.282 500.091, 516 500.360, 516.003 503.310 C 516.006 506.356, 516.187 506.502, 520.003 506.549 C 523.973 506.597, 524 506.572, 524 502.799 C 524 500.709, 523.888 499.076, 523.750 499.168 C 523.612 499.261, 521.813 499.513, 519.750 499.728 M 540.448 499.885 C 540.202 500.132, 540 501.745, 540 503.471 C 540 506.509, 540.134 506.605, 544.222 506.503 C 548.220 506.402, 548.453 506.232, 548.600 503.292 C 548.747 500.376, 548.517 500.164, 544.826 499.812 C 542.665 499.606, 540.694 499.639, 540.448 499.885 M 566.333 503 C 566.333 505.733, 566.630 506, 569.667 506 C 571.500 506, 573.329 506.005, 573.732 506.012 C 574.134 506.018, 574.531 504.668, 574.615 503.012 C 574.760 500.115, 574.605 500, 570.550 500 C 566.532 500, 566.333 500.141, 566.333 503 M 600 534 L 600 568 608 568 L 616 568 616 534 L 616 500 608 500 L 600 500 600 534 M 618 534 L 618 568 621 568 L 624 568 624 534 L 624 500 621 500 L 618 500 618 534 M 627.500 534 L 627.500 568 629.750 568 L 632 568 632 534 L 632 500 629.750 500 L 627.500 500 627.500 534 M 488 520.474 L 488 531.545 492 531.545 L 496 531.545 495.997 520.523 L 495.994 509.500 491.997 509.451 L 488 509.403 488 520.474 M 516 520.523 L 516 531.545 520 531.545 L 524 531.545 524 520.523 L 524 509.500 520 509.500 L 516 509.500 516 520.523 M 540 520.457 L 540 531.545 544 531.545 C 546.200 531.545, 548.015 531.085, 548.032 530.523 C 548.050 529.960, 548.114 525.061, 548.175 519.635 L 548.286 509.771 544.143 509.570 L 540 509.369 540 520.457 M 566.393 511.582 C 566.727 512.452, 567 517.126, 567 521.968 L 567 530.773 570.250 531.268 C 572.038 531.540, 573.627 531.652, 573.782 531.516 C 573.937 531.380, 574.162 526.483, 574.282 520.633 L 574.500 509.998 570.143 509.999 C 566.581 510, 565.897 510.289, 566.393 511.582 M 326 619.883 C 326 620.919, 326.841 621.987, 327.869 622.255 C 330.294 622.890, 331.267 630.247, 330.849 644.800 C 330.570 654.502, 330.325 655.702, 328.216 657.665 C 326.090 659.645, 326.045 659.873, 327.695 660.329 C 328.688 660.603, 333.693 660.873, 338.818 660.928 C 349.638 661.046, 354.116 659.478, 356.479 654.743 C 358.203 651.285, 358.501 645.428, 357 644.500 C 356.450 644.160, 356 643.174, 356 642.308 C 356 641.443, 355.045 639.906, 353.877 638.894 L 351.755 637.053 353.920 632.447 C 356.196 627.605, 356.052 625.504, 353.220 622.276 C 350.087 618.703, 347.350 618, 336.566 618 C 326.885 618, 326 618.158, 326 619.883 M 392 619.465 C 392 620.270, 392.900 621.411, 394 622 C 395.867 622.999, 396 624.094, 396 638.417 L 396 653.763 392.810 656.881 L 389.620 660 404.810 660 L 420 660 420 655 C 420 652.250, 419.550 650, 419 650 C 418.450 650, 418 650.735, 418 651.633 C 418 653.823, 414.199 657.003, 411.597 656.989 C 410.444 656.983, 407.813 656.699, 405.750 656.358 L 402 655.738 402 639.878 C 402 625.100, 402.137 623.932, 404 622.768 C 405.100 622.081, 406 620.727, 406 619.759 C 406 618.248, 405.014 618, 399 618 C 393.519 618, 392 618.318, 392 619.465 M 450.520 618.967 C 450.191 619.499, 450.840 620.508, 451.961 621.208 C 453.800 622.356, 454 623.498, 454 632.837 C 454 650.113, 457.655 658.082, 466.841 660.834 C 472.054 662.396, 472.940 662.331, 478.617 659.964 C 486.692 656.598, 488.165 653.311, 488.776 637.299 C 489.199 626.230, 489.599 623.616, 491.142 621.836 C 492.164 620.658, 493 619.293, 493 618.803 C 493 618.313, 489.742 618.045, 485.761 618.206 C 479.800 618.448, 478.462 618.809, 478.187 620.250 C 477.960 621.439, 478.487 622, 479.829 622 C 482.616 622, 484 626.700, 484 636.165 C 484 650.627, 479.876 658, 471.787 658 C 463.151 658, 460 652.050, 460 635.744 C 460 625.097, 460.087 624.658, 462.627 622.476 C 464.071 621.234, 464.945 619.720, 464.568 619.109 C 463.723 617.743, 451.354 617.618, 450.520 618.967 M 525.510 618.824 C 524.405 619.929, 525.111 621.092, 527.421 621.970 C 529.429 622.733, 529.958 623.813, 530.517 628.288 C 530.888 631.256, 531.036 638.431, 530.846 644.232 C 530.523 654.071, 530.332 654.914, 528 656.803 C 526.625 657.917, 525.772 659.101, 526.104 659.434 C 527.050 660.385, 541.693 660.808, 543.120 659.926 C 544.031 659.363, 543.495 658.617, 541.254 657.331 C 537.791 655.344, 537.034 653.558, 537.014 647.332 C 536.993 641.139, 537.718 640, 541.678 640 C 545.302 640, 546.886 641.050, 548.877 644.771 C 550.746 648.263, 552 647.401, 552 642.622 C 552 636.759, 550.524 635.723, 542.779 636.152 L 536.500 636.500 536.815 631 C 537.335 621.926, 537.271 622, 544.614 622 C 550.764 622, 551.180 622.152, 552.797 624.994 C 555.396 629.561, 557.408 628.952, 556.591 623.845 C 556.226 621.560, 555.691 619.309, 555.402 618.841 C 554.853 617.953, 526.397 617.936, 525.510 618.824 M 587.510 618.824 C 586.405 619.929, 587.111 621.092, 589.421 621.970 C 591.440 622.738, 591.957 623.811, 592.535 628.434 C 592.916 631.483, 593.054 638.665, 592.842 644.394 C 592.485 654.042, 592.274 654.958, 589.978 656.819 C 588.615 657.924, 587.800 659.130, 588.168 659.498 C 589.444 660.780, 603.954 660.760, 605.020 659.476 C 605.758 658.586, 605.241 657.928, 603.111 657.046 C 599.909 655.720, 599.034 653.646, 599.014 647.332 C 598.993 641.139, 599.718 640, 603.678 640 C 607.302 640, 608.886 641.050, 610.877 644.771 C 612.746 648.263, 614 647.401, 614 642.622 C 614 636.759, 612.524 635.723, 604.779 636.152 L 598.500 636.500 598.813 631 C 599.330 621.931, 599.270 622, 606.614 622 C 612.764 622, 613.180 622.152, 614.797 624.994 C 617.396 629.561, 619.408 628.952, 618.591 623.845 C 618.226 621.560, 617.691 619.309, 617.402 618.841 C 616.853 617.953, 588.397 617.936, 587.510 618.824 M 653.856 620.152 C 647.091 624.029, 645.875 631.681, 651.250 636.554 C 655.116 640.058, 658.409 642, 660.486 642 C 661.319 642, 662 642.450, 662 643 C 662 643.550, 662.672 644, 663.492 644 C 666.430 644, 670 648.200, 670 651.655 C 670 654.291, 669.411 655.253, 667.050 656.474 C 661.638 659.273, 652.361 657.510, 651.795 653.576 C 651.633 652.445, 650.712 651.370, 649.750 651.187 C 648.367 650.923, 648 651.551, 648 654.183 C 648 656.861, 648.537 657.743, 650.750 658.694 C 662.854 663.897, 676 659.447, 676 650.146 C 676 644.783, 673.772 642.346, 664.904 638.013 C 655.375 633.356, 654 632.085, 654 627.932 C 654 623.663, 656.343 622.071, 662.682 622.032 C 667.315 622.003, 668.090 622.318, 670 625 C 672.809 628.945, 674 628.789, 674 624.475 C 674 620.250, 671.556 618.898, 663 618.390 C 658.820 618.141, 656.625 618.564, 653.856 620.152 M 339 621.935 C 336.659 622.548, 336.500 623.001, 336.500 629.045 L 336.500 635.500 340.868 635.813 C 344.291 636.059, 345.752 635.642, 347.618 633.889 C 350.237 631.428, 350.772 626.584, 348.718 623.919 C 347.252 622.015, 342.440 621.032, 339 621.935 M 336.607 641.582 C 335.406 644.711, 335.998 653.552, 337.557 655.777 C 339.925 659.159, 346.601 658.542, 350.568 654.575 C 353.512 651.630, 352.732 644.039, 349.211 641.363 C 346.667 639.431, 337.371 639.592, 336.607 641.582 M 419.639 704.694 C 419.288 705.046, 419 710.433, 419 716.667 L 419 728 424.500 728 C 428.557 728, 430 727.631, 430 726.595 C 430 725.533, 429.023 725.321, 426 725.727 L 422 726.263 422 715.691 C 422 706.020, 421.348 702.985, 419.639 704.694 M 536.365 705.169 C 535.190 705.738, 533.652 707.283, 532.946 708.602 C 531.163 711.933, 533.014 715.101, 538.008 717.264 C 540.151 718.193, 542.383 719.848, 542.969 720.942 C 543.856 722.600, 543.606 723.212, 541.465 724.615 C 539.016 726.220, 538.759 726.198, 535.988 724.149 C 532.518 721.584, 532 721.509, 532 723.571 C 532 726.288, 534.706 728, 539 728 C 544.013 728, 546.004 726.239, 545.988 721.821 C 545.978 719.135, 545.311 718.070, 542.502 716.250 C 540.591 715.013, 538.347 714, 537.514 714 C 536.498 714, 536 713.012, 536 711 C 536 708.381, 536.356 708, 538.800 708 C 540.340 708, 542.080 708.480, 542.667 709.067 C 543.424 709.824, 543.909 709.680, 544.333 708.575 C 544.736 707.523, 543.982 706.525, 542.015 705.508 C 540.411 704.679, 538.964 704.030, 538.800 704.068 C 538.635 704.105, 537.539 704.601, 536.365 705.169 M 290 716.500 C 290 723.500, 290.391 728, 291 728 C 291.550 728, 292 725.750, 292 723 C 292 718.285, 292.148 718, 294.594 718 C 296.346 718, 297.357 718.649, 297.710 720 C 297.998 721.100, 298.521 722, 298.873 722 C 299.224 722, 300.109 723.350, 300.840 725 C 301.649 726.828, 302.916 728, 304.084 728 C 306.505 728, 306.490 727.443, 304 724.770 C 302.900 723.589, 302 722.033, 302 721.311 C 302 720.590, 301.550 720, 301 720 C 299.159 720, 299.975 717.143, 302 716.500 C 303.547 716.009, 304 714.987, 304 711.989 C 304 707.030, 301.321 705, 294.777 705 L 290 705 290 716.500 M 333.667 705.667 C 333.300 706.033, 333 711.208, 333 717.167 L 333 728 339.500 728 C 343.167 728, 346 727.564, 346 727 C 346 726.450, 343.750 726, 341 726 L 336 726 336 722 L 336 718 340.583 718 C 343.815 718, 345.038 717.631, 344.732 716.750 C 344.471 716, 342.637 715.535, 340.149 715.586 L 336 715.673 336 711.836 L 336 708 341 708 C 344.778 708, 346 707.633, 346 706.500 C 346 705.338, 344.685 705, 340.167 705 C 336.958 705, 334.033 705.300, 333.667 705.667 M 380.064 706.881 C 379.510 707.915, 378.347 710.953, 377.478 713.631 C 375.876 718.572, 374.480 722.097, 372.883 725.236 C 371.635 727.690, 371.752 728, 373.930 728 C 375.171 728, 375.975 727.196, 376.180 725.750 C 376.468 723.728, 377.058 723.500, 382 723.500 C 386.942 723.500, 387.532 723.728, 387.820 725.750 C 388.025 727.196, 388.829 728, 390.070 728 C 392.121 728, 392.668 726.531, 391 725.500 C 390.450 725.160, 390 724.002, 390 722.927 C 390 721.852, 389.480 719.966, 388.844 718.736 C 386.412 714.033, 386 712.980, 386 711.478 C 386 709.600, 383.103 705, 381.920 705 C 381.453 705, 380.617 705.846, 380.064 706.881 M 490.527 705.956 C 490.202 706.482, 489.999 711.657, 490.075 717.456 L 490.214 728 497.107 728 C 501.036 728, 504 727.570, 504 727 C 504 726.450, 501.750 726, 499 726 L 494 726 494 722 L 494 718 498 718 C 501.005 718, 502 717.601, 502 716.395 C 502 715.126, 501.164 714.870, 498 715.171 L 494 715.553 494 711.776 L 494 708 499 708 C 502.778 708, 504 707.633, 504 706.500 C 504 705.322, 502.618 705, 497.559 705 C 494.016 705, 490.852 705.430, 490.527 705.956 M 572 706.458 C 572 707.505, 572.964 708, 575 708 L 578 708 578 718 C 578 726.389, 578.251 728, 579.559 728 C 580.877 728, 581.086 726.499, 580.917 718.250 L 580.716 708.500 583.897 708 C 589.911 707.055, 587.607 705.504, 579.750 705.208 C 573.308 704.965, 572 705.176, 572 706.458 M 619.338 706.207 C 618.800 706.918, 617.748 709.525, 617 712 C 616.252 714.475, 615.352 716.950, 615 717.500 C 613.679 719.565, 611.702 727.035, 612.314 727.647 C 613.202 728.535, 616 726.053, 616 724.378 C 616 723.397, 617.396 723, 620.839 723 C 625.031 723, 625.831 723.335, 626.818 725.500 C 627.445 726.875, 628.628 728, 629.447 728 C 630.929 728, 630.855 727.063, 629.010 722.500 C 628.566 721.400, 627.661 718.925, 627 717 C 626.339 715.075, 625.417 712.600, 624.951 711.500 C 624.484 710.400, 623.962 708.605, 623.790 707.511 C 623.420 705.159, 620.728 704.370, 619.338 706.207 M 655 706.458 C 655 707.554, 656.013 708, 658.500 708 L 662 708 662 718 C 662 724, 662.400 728, 663 728 C 663.600 728, 664 724.021, 664 718.063 L 664 708.127 667.250 707.813 C 673.448 707.216, 670.483 705.499, 662.750 705.208 C 656.308 704.965, 655 705.176, 655 706.458 M 698 716.452 L 698 728 704.500 728 C 712.252 728, 713.256 726.234, 705.750 725.802 L 700.500 725.500 700.190 721.750 L 699.879 718 705.023 718 C 711.679 718, 711.383 715.633, 704.672 715.195 C 700.087 714.896, 700 714.827, 700 711.497 C 700 708.109, 700.008 708.104, 705.250 707.802 C 712.539 707.383, 711.839 705.564, 704.250 705.202 L 698 704.905 698 716.452 M 292 711.557 C 292 715.112, 292.004 715.115, 296.148 714.807 C 303.991 714.226, 303.743 708, 295.878 708 C 292.101 708, 292 708.092, 292 711.557 M 380.871 712.750 C 380.274 714.263, 379.383 716.281, 378.892 717.236 C 377.538 719.871, 377.689 720, 382.107 720 C 385.624 720, 386.111 719.749, 385.499 718.250 C 385.105 717.288, 384.361 715.038, 383.845 713.250 C 382.700 709.288, 382.267 709.215, 380.871 712.750 M 619.243 713.984 C 617.480 719.636, 617.608 720, 621.361 720 C 624.413 720, 624.678 719.768, 624.242 717.485 C 623.978 716.102, 623.365 714.726, 622.881 714.426 C 622.396 714.127, 622 713.009, 622 711.941 C 622 708.697, 620.560 709.764, 619.243 713.984"/><path fill-rule="evenodd" fill="#00000b" stroke="none" d="M 476 284.980 C 475.175 285.454, 471.800 286.813, 468.500 288.001 C 465.200 289.188, 461.719 290.574, 460.764 291.080 C 459.809 291.586, 458.584 292, 458.043 292 C 457.502 292, 454.600 293.125, 451.594 294.500 C 448.588 295.875, 445.830 297, 445.465 297 C 445.101 297, 443.384 297.624, 441.651 298.386 C 439.918 299.149, 435.800 300.760, 432.500 301.966 C 429.200 303.173, 425.719 304.574, 424.764 305.080 C 423.809 305.586, 422.584 306, 422.043 306 C 421.502 306, 418.600 307.125, 415.594 308.500 C 412.588 309.875, 409.830 311, 409.465 311 C 409.101 311, 407.384 311.622, 405.651 312.383 C 403.918 313.143, 400.925 314.314, 399 314.984 C 394.690 316.484, 391.051 317.953, 388.764 319.117 C 387.809 319.603, 386.566 320, 386.003 320 C 385.439 320, 383.071 320.858, 380.739 321.907 C 378.408 322.956, 371.550 325.671, 365.500 327.940 C 354.039 332.238, 349.326 334.481, 349.750 335.437 C 349.887 335.747, 350 336.900, 350 338 C 350 339.333, 350.667 340, 352 340 C 353.988 340, 354 340.667, 354 454.500 L 354 569 335 569 L 316 569 316 549.500 L 316 530 319.179 530 C 322.873 530, 328.914 528.054, 330.821 526.250 C 331.548 525.563, 332.538 525, 333.021 525 C 334.497 525, 339.786 518.807, 341.956 514.537 C 346.118 506.347, 346.277 496.364, 342.376 488.111 C 340.394 483.917, 333.487 476.963, 329.488 475.133 C 327.845 474.382, 325.719 473.369, 324.764 472.883 C 322.378 471.670, 308.263 471.765, 307.500 473 C 307.160 473.550, 306.121 474.011, 305.191 474.025 C 302.571 474.063, 294.312 480.571, 291.511 484.804 C 287.391 491.030, 285.617 499.429, 287.034 506 C 287.687 509.025, 288.959 512.998, 289.860 514.829 C 291.889 518.948, 298.654 526, 300.577 526 C 301.360 526, 302 526.450, 302 527 C 302 527.550, 302.873 528, 303.941 528 C 305.009 528, 306.160 528.450, 306.500 529 C 306.840 529.550, 308.666 530, 310.559 530 L 314 530 314 549.577 L 314 569.153 310.554 568.856 C 308.658 568.693, 306.783 568.884, 306.387 569.280 C 305.991 569.676, 393.379 569.933, 500.583 569.850 C 607.787 569.768, 694.263 569.513, 692.750 569.284 L 690 568.867 690 551.979 L 690 535.091 693.750 534.434 C 701.481 533.079, 709.424 526.517, 712.794 518.703 C 714.355 515.084, 714.344 504.643, 712.774 500.071 C 711.339 495.889, 702.264 486.056, 699.809 486.023 C 698.879 486.010, 697.840 485.550, 697.500 485 C 697.160 484.450, 693.322 484, 688.971 484 C 680.230 484, 676.268 485.548, 670.184 491.342 C 665.775 495.542, 662 503.917, 662 509.500 C 662 512.677, 662.585 514.692, 665.341 521 C 666.637 523.967, 674.961 531.990, 676.750 531.996 C 677.438 531.998, 678 532.392, 678 532.871 C 678 533.350, 680.250 534.041, 683 534.406 L 688 535.069 688 552.055 L 688 569.041 667.750 568.771 L 647.500 568.500 647.500 529 L 647.500 489.500 651.750 489.193 L 656 488.885 656 475.443 L 656 462 646 462 L 636 462 636 437 C 636 415.804, 636.221 412, 637.453 412 C 638.854 412, 640.932 412.742, 647.651 415.641 C 651.990 417.512, 652 417.506, 652 412.945 C 652 408.989, 651.865 408.830, 646.471 406.445 C 643.431 405.100, 640.281 404, 639.471 404 C 638.662 404, 638 403.648, 638 403.218 C 638 402.788, 635.862 401.813, 633.250 401.050 C 630.638 400.288, 627.825 399.342, 627 398.949 C 623.957 397.498, 620.397 396.099, 616.500 394.821 C 614.300 394.101, 612.275 393.281, 612 393 C 611.725 392.719, 609.700 391.891, 607.500 391.161 C 605.300 390.430, 601.592 388.970, 599.261 387.916 C 596.929 386.862, 594.561 386, 593.997 386 C 593.434 386, 592.191 385.603, 591.236 385.117 C 588.952 383.955, 585.315 382.486, 581 380.983 C 579.075 380.312, 575.592 378.917, 573.261 377.882 C 570.929 376.847, 568.651 376, 568.199 376 C 567.746 376, 565.513 375.100, 563.236 374 C 560.959 372.900, 558.426 372, 557.607 372 C 556.788 372, 555.840 371.550, 555.500 371 C 555.160 370.450, 554.093 370, 553.129 370 C 552.165 370, 549.513 369.100, 547.236 368 C 544.959 366.900, 542.400 366, 541.548 366 C 540.697 366, 540 365.648, 540 365.218 C 540 364.788, 537.862 363.823, 535.250 363.073 C 532.638 362.323, 530.050 361.419, 529.500 361.063 C 528.950 360.708, 526.700 359.813, 524.500 359.074 C 522.300 358.335, 518.700 356.945, 516.500 355.984 C 514.300 355.023, 510.925 353.681, 509 353.001 C 507.075 352.322, 504.150 351.181, 502.500 350.467 C 500.850 349.754, 497.025 348.271, 494 347.173 C 482.096 342.853, 478.450 341.439, 477.250 340.676 C 476.307 340.077, 476 334.051, 476 316.178 C 476 292.555, 476.008 292.471, 478.250 291.487 C 481.224 290.182, 482.113 283.968, 479.313 284.059 C 478.316 284.091, 476.825 284.506, 476 284.980 M 470 289.658 C 466.425 291.066, 461.592 293.069, 459.261 294.109 C 456.929 295.149, 454.561 296, 453.997 296 C 453.434 296, 452.079 296.450, 450.986 297 C 449.894 297.550, 448.106 298.450, 447.014 299 C 445.921 299.550, 444.549 300, 443.965 300 C 443.381 300, 441.172 300.836, 439.056 301.859 C 436.940 302.881, 433.137 304.329, 430.604 305.077 C 428.072 305.825, 426 306.788, 426 307.218 C 426 307.648, 425.094 308, 423.986 308 C 422.879 308, 421.191 308.397, 420.236 308.883 C 417.109 310.474, 411.120 312.885, 405 315.017 C 403.075 315.688, 399.592 317.083, 397.261 318.118 C 394.929 319.153, 392.342 320, 391.511 320 C 390.680 320, 390 320.450, 390 321 C 390 321.550, 388.902 322, 387.559 322 C 386.216 322, 384.895 322.361, 384.622 322.802 C 384.350 323.243, 381.848 324.224, 379.063 324.983 C 376.279 325.741, 374 326.632, 374 326.962 C 374 327.293, 371.863 328.177, 369.250 328.927 C 366.637 329.677, 364.050 330.594, 363.500 330.965 C 362.950 331.336, 360.581 332.245, 358.236 332.985 C 353.829 334.375, 351.195 336.528, 352.412 337.745 C 352.795 338.128, 353.422 338.003, 353.804 337.466 C 354.187 336.929, 356.300 335.899, 358.500 335.179 C 360.700 334.458, 363.625 333.387, 365 332.800 C 366.375 332.213, 368.512 331.343, 369.750 330.866 C 370.988 330.390, 373.238 329.490, 374.750 328.866 C 378.509 327.316, 380.887 326.415, 385 324.983 C 386.925 324.312, 390.408 322.917, 392.739 321.882 C 395.071 320.847, 397.439 320, 398.003 320 C 398.566 320, 399.809 319.603, 400.764 319.117 C 401.719 318.631, 403.850 317.678, 405.500 317 C 407.150 316.322, 409.281 315.369, 410.236 314.883 C 411.191 314.397, 412.852 314, 413.927 314 C 415.002 314, 416.129 313.600, 416.432 313.111 C 416.734 312.622, 418.223 311.912, 419.741 311.534 C 421.258 311.155, 424.075 310.160, 426 309.321 C 430.757 307.249, 432.193 306.681, 442 303 C 446.675 301.245, 451.400 299.446, 452.500 299.002 C 453.600 298.558, 456.975 297.294, 460 296.192 C 463.025 295.091, 466.400 293.848, 467.500 293.431 C 468.600 293.014, 471.494 291.940, 473.931 291.044 C 476.367 290.149, 478.542 288.873, 478.764 288.208 C 479.352 286.444, 477.297 286.783, 470 289.658 M 439.500 319 C 439.160 319.550, 438.093 320, 437.129 320 C 436.165 320, 433.604 320.835, 431.438 321.856 C 429.272 322.877, 425.363 324.326, 422.750 325.075 C 420.137 325.824, 418 326.788, 418 327.218 C 418 327.648, 416.965 328, 415.700 328 C 414.435 328, 412.973 328.358, 412.450 328.796 C 411.928 329.234, 409.700 330.175, 407.500 330.889 C 405.300 331.602, 402.262 332.704, 400.750 333.337 L 398 334.488 398 381.244 L 398 428 421 428 L 444 428 444 373 C 444 319.224, 443.957 318, 442.059 318 C 440.991 318, 439.840 318.450, 439.500 319 M 468 341.831 C 468 343.539, 469.732 344.742, 475.250 346.866 C 476.488 347.343, 478.625 348.213, 480 348.800 C 481.375 349.387, 484.300 350.439, 486.500 351.138 C 488.700 351.837, 490.928 352.766, 491.450 353.204 C 491.973 353.642, 492.990 354, 493.711 354 C 494.432 354, 496.929 354.847, 499.261 355.882 C 501.592 356.917, 505.075 358.319, 507 358.999 C 508.925 359.678, 511.850 360.814, 513.500 361.522 C 521.712 365.046, 524.400 366, 526.122 366 C 527.155 366, 528 366.352, 528 366.782 C 528 367.212, 530.138 368.187, 532.750 368.950 C 535.362 369.712, 538.400 370.781, 539.500 371.324 C 544.352 373.721, 545.029 374, 545.997 374 C 546.561 374, 548.929 374.847, 551.261 375.882 C 553.592 376.917, 557.075 378.312, 559 378.983 C 563.351 380.498, 565.795 381.431, 569 382.800 C 570.375 383.387, 573.300 384.458, 575.500 385.179 C 577.700 385.899, 579.725 386.719, 580 387 C 580.275 387.281, 582.300 388.101, 584.500 388.821 C 588.754 390.216, 592.402 391.675, 595.236 393.117 C 596.191 393.603, 597.434 394, 597.997 394 C 598.561 394, 600.929 394.847, 603.261 395.882 C 605.592 396.917, 609.075 398.312, 611 398.983 C 612.925 399.653, 615.625 400.667, 617 401.235 C 620.483 402.674, 622.938 403.602, 627 405.017 C 628.925 405.688, 632.408 407.083, 634.739 408.118 C 637.071 409.153, 639.439 410, 640.003 410 C 640.566 410, 641.921 410.450, 643.014 411 C 644.106 411.550, 645.894 412.450, 646.986 413 C 649.704 414.368, 650 414.282, 650 412.121 C 650 410.919, 648.830 409.803, 646.750 409.020 C 642.530 407.433, 638.876 405.946, 637 405.051 C 636.175 404.658, 633.362 403.712, 630.750 402.950 C 628.138 402.187, 626 401.293, 626 400.962 C 626 400.632, 623.750 399.749, 621 399 C 618.250 398.251, 616 397.270, 616 396.819 C 616 396.369, 615.094 396, 613.986 396 C 612.879 396, 611.191 395.603, 610.236 395.117 C 609.281 394.631, 607.375 393.791, 606 393.250 C 604.625 392.710, 602.375 391.787, 601 391.200 C 599.625 390.613, 596.700 389.542, 594.500 388.821 C 592.300 388.101, 590.275 387.281, 590 387 C 589.725 386.719, 587.700 385.899, 585.500 385.179 C 581.603 383.901, 578.043 382.502, 575 381.051 C 574.175 380.658, 571.362 379.712, 568.750 378.950 C 566.138 378.187, 564 377.212, 564 376.782 C 564 376.352, 563.320 376, 562.489 376 C 561.658 376, 559.071 375.153, 556.739 374.118 C 554.408 373.083, 550.925 371.688, 549 371.017 C 544.685 369.514, 541.048 368.045, 538.764 366.883 C 537.809 366.397, 536.566 366, 536.003 366 C 535.439 366, 533.071 365.152, 530.739 364.115 C 528.408 363.078, 523.800 361.227, 520.500 360.001 C 517.200 358.775, 513.150 357.183, 511.500 356.463 C 509.850 355.743, 507.258 354.845, 505.741 354.466 C 504.223 354.088, 502.734 353.378, 502.432 352.889 C 502.129 352.400, 501.229 352, 500.430 352 C 499.632 352, 497.071 351.151, 494.739 350.113 C 492.408 349.075, 486.675 346.790, 482 345.035 C 477.325 343.280, 472.719 341.430, 471.764 340.922 C 469.140 339.529, 468 339.804, 468 341.831 M 476 406.006 L 476 462.012 554.750 461.756 L 633.500 461.500 633.756 436 L 634.012 410.500 631.307 409.250 C 629.819 408.563, 628.236 408, 627.790 408 C 627.343 408, 625.071 407.153, 622.739 406.118 C 620.408 405.083, 616.925 403.688, 615 403.017 C 610.649 401.502, 608.205 400.569, 605 399.200 C 603.625 398.613, 600.700 397.542, 598.500 396.821 C 596.300 396.101, 594.275 395.281, 594 395 C 593.725 394.719, 591.700 393.899, 589.500 393.179 C 585.397 391.834, 583.364 391.064, 579 389.200 C 577.625 388.613, 574.700 387.542, 572.500 386.821 C 570.300 386.101, 568.275 385.281, 568 385 C 567.725 384.719, 565.700 383.899, 563.500 383.179 C 561.300 382.458, 558.375 381.387, 557 380.800 C 552.636 378.936, 550.603 378.166, 546.500 376.821 C 544.300 376.101, 542.275 375.281, 542 375 C 541.725 374.719, 539.700 373.899, 537.500 373.179 C 533.246 371.784, 529.598 370.325, 526.764 368.883 C 525.809 368.397, 524.566 368, 524.003 368 C 523.439 368, 521.071 367.153, 518.739 366.118 C 516.408 365.083, 512.925 363.688, 511 363.017 C 509.075 362.347, 506.375 361.333, 505 360.765 C 501.510 359.323, 499.055 358.395, 495 356.984 C 493.075 356.314, 490.150 355.186, 488.500 354.478 C 481.308 351.392, 477.696 350, 476.878 350 C 476.384 350, 476 374.529, 476 406.006 M 484 408 L 484 456 555.500 456 L 627 456 627 434.169 C 627 409.629, 627.756 412.007, 619 409 C 614.757 407.543, 612.296 406.608, 609 405.199 C 607.625 404.612, 603.575 403.172, 600 402 C 596.425 400.828, 592.487 399.448, 591.250 398.934 C 586.814 397.092, 584.446 396.183, 581 395 C 577.028 393.636, 574.595 392.720, 571 391.235 C 569.625 390.667, 566.925 389.661, 565 389 C 563.075 388.339, 560.375 387.333, 559 386.765 C 557.625 386.197, 555.600 385.366, 554.500 384.918 C 553.400 384.469, 549.350 383.068, 545.500 381.803 C 541.650 380.539, 538.350 379.166, 538.167 378.752 C 537.983 378.338, 536.836 378, 535.617 378 C 534.397 378, 532.972 377.642, 532.450 377.204 C 531.928 376.766, 529.700 375.837, 527.500 375.138 C 525.300 374.439, 522.487 373.448, 521.250 372.934 C 520.013 372.420, 517.987 371.580, 516.750 371.066 C 515.513 370.552, 512.700 369.561, 510.500 368.862 C 508.300 368.163, 506.072 367.234, 505.550 366.796 C 505.027 366.358, 503.602 366, 502.383 366 C 501.164 366, 500.017 365.662, 499.833 365.248 C 499.479 364.448, 487.007 360, 485.119 360 C 484.309 360, 484 373.271, 484 408 M 432.475 363.041 C 432.121 363.613, 430.182 365.199, 428.166 366.565 C 424.139 369.294, 420.273 372.186, 411.548 379 C 408.378 381.475, 404.406 384.374, 402.720 385.443 C 401.035 386.511, 400.150 387.550, 400.754 387.751 C 401.856 388.119, 408.446 384.348, 411.090 381.838 C 412.982 380.043, 427.562 369.126, 432.243 366 C 434.302 364.625, 435.989 363.163, 435.993 362.750 C 436.003 361.619, 433.211 361.850, 432.475 363.041 M 486 387.055 L 486 412 500.521 412 L 515.042 412 514.771 392.398 L 514.500 372.797 510 371.302 C 507.525 370.480, 505.072 369.401, 504.550 368.904 C 504.028 368.407, 502.784 368, 501.786 368 C 500.789 368, 499.191 367.591, 498.236 367.090 C 497.281 366.590, 494.137 365.264, 491.250 364.145 L 486 362.111 486 387.055 M 408.776 374.282 C 407.279 375.502, 404.624 377.603, 402.877 378.950 C 401.130 380.298, 400.167 381.556, 400.738 381.746 C 402.162 382.221, 411.998 374.800, 411.999 373.250 C 412 371.653, 412.006 371.651, 408.776 374.282 M 427.523 375.478 C 425.336 377.349, 423.762 379.095, 424.024 379.358 C 424.704 380.037, 432.256 374.752, 432.753 373.250 C 433.445 371.160, 431.702 371.902, 427.523 375.478 M 517 393 L 517 412 535.500 412 L 554 412 554 400.122 C 554 387.111, 554.052 387.230, 547.500 385.142 C 545.300 384.441, 542.375 383.387, 541 382.800 C 537.701 381.391, 535.240 380.456, 531 379 C 526.766 377.546, 523.099 376.071, 520.764 374.883 C 519.809 374.397, 518.571 374, 518.014 374 C 517.364 374, 517 380.830, 517 393 M 556 400 L 556 412 572.500 412 L 589 412 589 406.160 L 589 400.320 584.750 398.986 C 582.413 398.253, 580.072 397.280, 579.550 396.826 C 579.027 396.372, 577.565 396, 576.300 396 C 575.035 396, 574 395.658, 574 395.241 C 574 394.824, 570.400 393.365, 566 392 C 561.600 390.635, 558 389.176, 558 388.759 C 558 388.342, 557.550 388, 557 388 C 556.389 388, 556 392.667, 556 400 M 539.976 392.250 C 537.597 394.038, 534.042 396.736, 532.076 398.247 C 530.109 399.759, 527.038 401.941, 525.250 403.096 C 522.149 405.101, 520.997 407, 522.881 407 C 523.366 407, 527.464 404.188, 531.988 400.750 C 536.512 397.313, 541.516 393.671, 543.107 392.658 C 545.881 390.892, 546.937 389, 545.150 389 C 544.683 389, 542.354 390.462, 539.976 392.250 M 526.573 395.521 C 524.303 397.239, 525.340 398.906, 527.738 397.393 C 529.562 396.243, 530.635 393.982, 529.333 394.032 C 528.875 394.049, 527.633 394.720, 526.573 395.521 M 539.306 398.415 C 537.763 399.743, 536.815 401.146, 537.200 401.532 C 537.929 402.262, 543.848 398.066, 543.945 396.750 C 544.051 395.313, 542.093 396.016, 539.306 398.415 M 591 407 L 591 412 604.500 412 C 612.833 412, 618 411.617, 618 411 C 618 410.450, 616.869 410, 615.486 410 C 614.104 410, 612.191 409.603, 611.236 409.117 C 608.306 407.626, 604.685 406.191, 600.500 404.862 C 598.300 404.163, 596.072 403.234, 595.550 402.796 C 595.028 402.358, 593.790 402, 592.800 402 C 591.307 402, 591 402.852, 591 407 M 486 434 L 486 454 500.500 454 L 515 454 515 434 L 515 414 500.500 414 L 486 414 486 434 M 517 434 L 517 454 535.500 454 L 554 454 554 434 L 554 414 535.500 414 L 517 414 517 434 M 556 434 L 556 454 572.500 454 L 589 454 589 434 L 589 414 572.500 414 L 556 414 556 434 M 591 434 L 591 454 607.500 454 L 624 454 624 434 L 624 414 607.500 414 L 591 414 591 434 M 506.312 426.779 C 504.559 428.276, 501.268 430.850, 499 432.500 C 491.986 437.602, 488.473 440.807, 489.151 441.485 C 489.509 441.842, 492.563 439.967, 495.939 437.317 C 499.315 434.668, 503.523 431.464, 505.289 430.198 C 507.055 428.933, 509.387 427.020, 510.472 425.948 C 513.611 422.848, 510.096 423.550, 506.312 426.779 M 579 427.519 C 576.525 429.428, 572.925 432.075, 571 433.401 C 565.697 437.055, 560.361 441.914, 561.602 441.959 C 562.208 441.982, 564.233 440.888, 566.102 439.529 C 567.971 438.170, 571.082 435.981, 573.015 434.665 C 574.948 433.349, 577.179 431.489, 577.974 430.532 C 578.768 429.575, 580.449 428.400, 581.709 427.921 C 582.969 427.441, 584 426.363, 584 425.525 C 584 423.570, 584.249 423.471, 579 427.519 M 493.655 429.829 C 490.772 433.014, 492.387 434.470, 495.429 431.429 C 497.137 429.720, 497.501 428, 496.155 428 C 495.690 428, 494.565 428.823, 493.655 429.829 M 506.539 432.492 C 504.911 433.823, 503.818 435.152, 504.112 435.445 C 505.162 436.496, 509.985 433.465, 509.992 431.750 C 510.002 429.589, 510.123 429.563, 506.539 432.492 M 564.583 431.643 C 563.599 434.209, 564.655 434.400, 567.122 432.101 C 569.347 430.028, 569.349 430, 567.296 430 C 566.151 430, 564.930 430.739, 564.583 431.643 M 578.322 433.454 C 576.473 435.081, 576.017 435.940, 577 435.946 C 579.214 435.960, 583.486 432.418, 582.208 431.629 C 581.623 431.267, 579.875 432.089, 578.322 433.454 M 398 492.020 L 398 540.039 419.750 539.770 L 441.500 539.500 441.760 491.750 L 442.019 444 420.010 444 L 398 444 398 492.020 M 468.217 475.250 L 468.500 486.500 561.250 486.755 L 654 487.010 654 475.505 L 654 464 560.967 464 L 467.934 464 468.217 475.250 M 310.500 475.202 C 301.076 478.310, 292 485.658, 292 490.180 C 292 491.181, 291.550 492, 291 492 C 290.413 492, 290 495.468, 290 500.405 C 290 509.221, 291.521 513.698, 296.382 519.194 C 299.049 522.209, 305.519 526, 307.998 526 C 309.034 526, 310.160 526.450, 310.500 527 C 310.840 527.550, 311.766 528, 312.559 528 C 313.722 528, 314 525.985, 314 517.570 L 314 507.140 318.920 501.820 C 322.738 497.691, 324.111 496.765, 325.054 497.684 C 326 498.607, 325.108 499.999, 321.017 503.984 C 318.129 506.797, 316.013 509.347, 316.317 509.650 C 316.620 509.953, 317.882 509.256, 319.122 508.101 C 321.254 506.115, 324 505.277, 324 506.611 C 324 506.947, 322.200 509.372, 320 512 C 316.376 516.328, 316 517.305, 316 522.389 C 316 528.676, 316.538 529.002, 323.132 526.704 C 331.447 523.807, 340 516.135, 340 511.573 C 340 510.773, 340.450 509.840, 341 509.500 C 341.550 509.160, 342 505.335, 342 501 C 342 496.665, 341.550 492.840, 341 492.500 C 340.450 492.160, 340 491.207, 340 490.382 C 340 486.135, 328.177 476, 323.221 476 C 322.064 476, 320.840 475.550, 320.500 475 C 319.739 473.768, 314.529 473.873, 310.500 475.202 M 422.846 483.465 C 417.873 487.114, 415.542 489.774, 418.215 488.748 C 420.481 487.878, 428.866 481.624, 428.938 480.750 C 429.053 479.353, 427.514 480.039, 422.846 483.465 M 430.785 486.789 C 428.978 488.323, 426.542 490.236, 425.372 491.039 C 419.778 494.879, 404.319 506.911, 403.114 508.363 C 400.892 511.040, 403.603 510.278, 407.215 507.211 C 409.022 505.677, 411.458 503.764, 412.628 502.961 C 414.564 501.632, 432.307 488.192, 435.968 485.282 C 437.326 484.202, 437.305 484.060, 435.785 484.032 C 434.841 484.014, 432.591 485.255, 430.785 486.789 M 682 486.943 C 681.175 487.397, 679.150 488.383, 677.500 489.134 C 673.665 490.880, 670.567 493.929, 668.019 498.466 C 666.463 501.236, 666 503.889, 666 510.030 C 666 514.677, 666.417 518, 667 518 C 667.550 518, 668 518.791, 668 519.757 C 668 523.553, 679.751 532, 685.030 532 C 687.888 532, 688 531.829, 688 527.446 C 688 523.765, 687.426 522.279, 685.005 519.696 C 681.801 516.278, 681.400 515, 683.024 513.376 C 683.722 512.678, 683.404 511.770, 682.024 510.521 C 680.911 509.514, 680 508.085, 680 507.345 C 680 504.825, 683.189 505.991, 686.575 509.750 C 689.894 513.434, 689.954 513.662, 689.977 522.750 C 690 531.847, 690.040 532, 692.405 532 C 698.293 532, 710 522.113, 710 517.141 C 710 516.028, 710.450 514.840, 711 514.500 C 711.550 514.160, 712 511.659, 712 508.941 C 712 506.223, 711.550 504, 711 504 C 710.450 504, 710 502.885, 710 501.522 C 710 498.445, 700.055 488, 697.124 488 C 696.021 488, 694.840 487.550, 694.500 487 C 693.764 485.808, 684.142 485.764, 682 486.943 M 468.672 489.661 C 468.302 490.031, 468 507.800, 468 529.148 L 468 567.962 470.250 568.507 C 471.488 568.807, 500.625 568.928, 535 568.776 L 597.500 568.500 597.763 533.250 L 598.026 498 616.013 498 L 634 498 634 533.500 L 634 569 639.511 569 L 645.023 569 644.761 529.250 L 644.500 489.500 556.922 489.245 C 508.754 489.104, 469.042 489.292, 468.672 489.661 M 408.500 493.469 C 406.468 495.134, 406.009 495.940, 407.076 495.964 C 407.942 495.984, 409.708 494.875, 411 493.500 C 414.015 490.291, 412.402 490.271, 408.500 493.469 M 428.417 497.458 C 425.959 499.628, 425.079 500.932, 426.054 500.958 C 426.908 500.981, 429.134 499.425, 431 497.500 C 435.376 492.985, 433.516 492.955, 428.417 497.458 M 486 515.500 L 486 534 494 534 L 502 534 502 515.500 L 502 497 494 497 L 486 497 486 515.500 M 513.443 498.287 C 513.172 498.994, 513.074 507.207, 513.225 516.537 L 513.500 533.500 521.750 533.790 L 530 534.081 530 515.540 L 530 497 521.969 497 C 516.344 497, 513.789 497.386, 513.443 498.287 M 538 515.500 L 538 534.081 546.250 533.790 L 554.500 533.500 554.500 515.500 L 554.500 497.500 546.250 497.210 L 538 496.919 538 515.500 M 564.667 497.667 C 564.300 498.033, 564 506.358, 564 516.167 L 564 534 572.500 534 L 581 534 581 515.500 L 581 497 573.167 497 C 568.858 497, 565.033 497.300, 564.667 497.667 M 488 503 L 488 507 492 507 L 496 507 496 503 L 496 499 492 499 L 488 499 488 503 M 515.667 499.667 C 515.300 500.033, 515 501.833, 515 503.667 C 515 506.951, 515.067 507, 519.500 507 L 524 507 524 503 C 524 499.029, 523.972 499, 520.167 499 C 518.058 499, 516.033 499.300, 515.667 499.667 M 540 502.943 L 540 507 544.560 507 L 549.121 507 548.810 503.250 C 548.509 499.610, 548.375 499.491, 544.250 499.193 L 540 498.885 540 502.943 M 566.413 500.366 C 566.099 501.185, 565.990 502.900, 566.171 504.177 C 566.449 506.138, 567.172 506.548, 570.814 506.811 L 575.128 507.121 574.814 503.311 C 574.516 499.693, 574.309 499.484, 570.742 499.189 C 568.122 498.972, 566.811 499.329, 566.413 500.366 M 600 534.500 L 600 569 608 569 L 616 569 616 534.500 L 616 500 608 500 L 600 500 600 534.500 M 618 534.500 L 618 569 621 569 L 624 569 624 534.500 L 624 500 621 500 L 618 500 618 534.500 M 627.237 534.250 L 627.500 568.500 629.750 568.820 L 632 569.139 632 534.570 L 632 500 629.487 500 L 626.974 500 627.237 534.250 M 488 520.500 L 488 532 492 532 L 496 532 496 520.500 L 496 509 492 509 L 488 509 488 520.500 M 515.217 520.250 L 515.500 531.500 519.750 531.807 L 524 532.115 524 520.557 L 524 509 519.467 509 L 514.934 509 515.217 520.250 M 540 520.557 L 540 532.115 544.250 531.807 L 548.500 531.500 548.783 520.250 L 549.066 509 544.533 509 L 540 509 540 520.557 M 566.430 510.321 C 566.151 511.048, 566.053 516.110, 566.212 521.571 L 566.500 531.500 570.500 531.500 L 574.500 531.500 574.783 520.250 L 575.066 509 571.001 509 C 568.556 509, 566.735 509.526, 566.430 510.321 M 326 620 C 326 621.296, 326.667 622, 327.893 622 C 328.934 622, 330.059 622.712, 330.393 623.582 C 330.727 624.452, 331 632.084, 331 640.543 C 331 655.076, 330.880 656.034, 328.811 657.961 C 327.608 659.082, 326.820 660.028, 327.061 660.062 C 327.303 660.096, 331.994 660.282, 337.486 660.477 C 349.167 660.889, 352.981 659.720, 355.974 654.810 C 359.068 649.735, 358.271 644.505, 353.595 639.208 C 351.895 637.282, 351.769 636.599, 352.808 634.936 C 353.488 633.847, 354.310 631.016, 354.635 628.644 C 355.194 624.568, 355.016 624.159, 351.385 621.166 C 347.599 618.045, 347.391 618, 336.772 618 C 326.667 618, 326 618.124, 326 620 M 392 619.577 C 392 620.285, 392.900 621.151, 394 621.500 C 395.889 622.100, 396 623.013, 396 637.991 C 396 653.590, 395.958 653.896, 393.411 656.923 L 390.822 660 405.411 660 L 420 660 420 654.833 C 420 649.552, 419.555 649.254, 417.580 653.216 C 416.076 656.233, 412.281 657.419, 406.775 656.593 C 402.708 655.984, 402.168 655.590, 401.616 652.831 C 400.814 648.821, 400.841 634.970, 401.664 628.116 C 402.151 624.055, 402.764 622.613, 404.155 622.249 C 405.170 621.984, 406 621.013, 406 620.092 C 406 618.690, 404.855 618.406, 399 618.352 C 393.922 618.306, 392 618.642, 392 619.577 M 451.377 619.199 C 451.059 619.713, 451.628 620.739, 452.641 621.480 C 454.228 622.640, 454.558 624.769, 455.028 636.866 C 455.565 650.690, 455.621 650.964, 458.643 654.703 C 462.760 659.797, 469.806 662.512, 474.886 660.963 C 481.043 659.085, 483.200 657.644, 485.642 653.775 C 487.784 650.382, 488.002 648.916, 488.022 637.770 C 488.042 627.133, 488.305 625.167, 490 623 C 493.247 618.849, 492.608 618.206, 485.488 618.460 C 479.172 618.684, 476.067 619.765, 478.875 620.762 C 479.631 621.030, 481.094 622.094, 482.125 623.125 C 484.966 625.966, 484.833 643.729, 481.918 650.744 C 479.614 656.288, 477.079 658, 471.175 658 C 462.670 658, 460 652.732, 460 635.950 C 460 624.368, 460.050 624.106, 462.653 622.059 C 464.112 620.911, 464.974 619.641, 464.570 619.236 C 463.480 618.145, 452.048 618.113, 451.377 619.199 M 526.001 619.628 C 526 620.248, 526.921 621.373, 528.046 622.128 C 530.785 623.964, 532.347 634.758, 531.471 645.796 C 530.899 653.001, 530.469 654.411, 528.205 656.511 C 526.770 657.841, 525.800 659.114, 526.048 659.339 C 526.297 659.564, 530.002 659.963, 534.283 660.226 C 541.921 660.695, 545.008 659.703, 541.690 657.846 C 538.420 656.016, 537.176 653.917, 536.516 649.113 C 535.576 642.279, 536.947 640, 541.999 640 C 545.368 640, 546.266 640.498, 548.303 643.495 C 550.974 647.427, 552 647.147, 552 642.488 C 552 637.382, 549.469 635.877, 542.169 636.640 L 536 637.285 536 632.190 C 536 629.387, 536.522 625.948, 537.161 624.547 C 538.234 622.191, 538.817 622, 544.945 622 C 551.244 622, 551.656 622.147, 553.341 625 C 555.708 629.008, 557.336 628.879, 556.505 624.750 C 555.062 617.584, 556.340 618.097, 540.451 618.308 C 530.505 618.440, 526.001 618.852, 526.001 619.628 M 588 620.250 C 588 621.212, 588.686 622, 589.525 622 C 590.363 622, 591.429 623.013, 591.892 624.250 C 593.388 628.243, 594.158 639.621, 593.432 646.995 C 592.850 652.897, 592.268 654.598, 590.160 656.552 C 588.750 657.860, 587.800 659.114, 588.048 659.339 C 588.297 659.564, 592.002 659.963, 596.283 660.226 C 603.921 660.695, 607.008 659.703, 603.690 657.846 C 600.420 656.016, 599.176 653.917, 598.516 649.113 C 597.589 642.379, 598.965 640, 603.785 640 C 606.840 640, 608.071 640.666, 610.712 643.750 L 613.925 647.500 613.931 643.500 C 613.940 636.952, 612.388 635.802, 604.611 636.599 L 598 637.276 598 632.185 C 598 629.385, 598.522 625.948, 599.161 624.547 C 600.234 622.191, 600.817 622, 606.945 622 C 613.244 622, 613.656 622.147, 615.341 625 C 616.316 626.650, 617.558 628, 618.102 628 C 619.255 628, 618.228 621.118, 616.808 619.324 C 616.161 618.506, 611.620 618.201, 601.939 618.324 C 589.399 618.482, 588.001 618.676, 588 620.250 M 655.343 619.546 C 648.529 622.532, 645.884 630.818, 650.250 635.501 C 651.487 636.828, 655.830 639.621, 659.900 641.707 C 668.155 645.938, 671.169 649.189, 670.378 653.009 C 669.084 659.261, 654.274 659.879, 651.459 653.798 C 650.110 650.885, 648.555 651.030, 648.198 654.101 C 647.713 658.276, 651.904 660.345, 660.999 660.421 C 668.195 660.481, 668.685 660.335, 672.261 657.081 C 676.892 652.867, 677.410 647.814, 673.630 643.735 C 671.541 641.480, 661.277 636, 659.145 636 C 657.849 636, 654.286 631.683, 653.532 629.201 C 651.223 621.593, 666.184 617.962, 670.404 625.106 C 672.668 628.939, 674 628.765, 674 624.636 C 674 621.595, 673.588 621.114, 669.717 619.636 C 664.612 617.686, 659.658 617.656, 655.343 619.546 M 337.750 621.647 C 336.300 622.061, 336 623.334, 336 629.073 L 336 636 341.385 636 C 346.005 636, 346.999 635.650, 348.385 633.535 C 350.326 630.573, 350.506 624.665, 348.700 623.166 C 347.166 621.893, 340.249 620.933, 337.750 621.647 M 339 639.882 C 336.664 640.538, 336.481 641.063, 336.204 647.884 C 335.850 656.622, 336.707 658, 342.488 658 C 349.953 658, 354.651 651.472, 352.070 644.684 C 350.564 640.722, 344.257 638.405, 339 639.882 M 290 716.376 C 290 723.459, 290.391 728, 291 728 C 291.550 728, 292 725.750, 292 723 C 292 718.333, 292.167 718, 294.500 718 C 296.465 718, 297.589 719.067, 299.750 722.986 C 301.412 725.998, 303.193 727.977, 304.250 727.986 C 306.264 728.002, 306.605 726.455, 304.750 725.717 C 304.063 725.443, 302.634 723.580, 301.575 721.577 L 299.649 717.934 301.825 716.410 C 304.319 714.663, 304.719 710.365, 302.650 707.536 C 301.705 706.244, 299.603 705.549, 295.650 705.221 L 290 704.752 290 716.376 M 334 716.500 L 334 728 340 728 C 343.333 728, 346 727.556, 346 727 C 346 726.450, 343.750 726, 341 726 L 336 726 336 722 C 336 718.010, 336.010 718, 339.941 718 C 342.109 718, 344.160 717.550, 344.500 717 C 344.878 716.389, 343.344 716, 340.559 716 L 336 716 336 712 L 336 708 341 708 C 344.778 708, 346 707.633, 346 706.500 C 346 705.333, 344.667 705, 340 705 L 334 705 334 716.500 M 379.743 708.750 C 378.885 710.813, 377.206 715.200, 376.011 718.500 C 374.817 721.800, 373.422 725.288, 372.912 726.250 C 372.227 727.540, 372.365 728, 373.437 728 C 374.237 728, 375.484 726.763, 376.209 725.250 C 377.242 723.094, 378.280 722.464, 381.013 722.334 C 386.343 722.081, 388 722.848, 388 725.567 C 388 727.325, 388.549 728, 389.979 728 C 392.072 728, 392.099 728.192, 388.926 720.500 C 388.472 719.400, 387.390 716.309, 386.522 713.631 C 384.619 707.763, 383.209 705, 382.117 705 C 381.670 705, 380.602 706.688, 379.743 708.750 M 419.639 705.694 C 419.288 706.046, 419 711.208, 419 717.167 L 419 728 424.500 728 C 427.525 728, 430 727.550, 430 727 C 430 726.450, 428.200 726, 426 726 L 422 726 422 716.059 C 422 706.954, 421.328 704.005, 419.639 705.694 M 491 716.452 L 491 728 497.500 728 C 501.167 728, 504 727.564, 504 727 C 504 726.450, 501.750 726, 499 726 L 494 726 494 722 L 494 718 498 718 C 500.200 718, 502 717.550, 502 717 C 502 716.450, 500.200 716, 498 716 L 494 716 494 712 L 494 708 499.083 708 C 506.695 708, 505.042 705.582, 497.171 705.202 L 491 704.905 491 716.452 M 534.009 707.490 C 532.001 709.628, 531.831 710.334, 532.810 712.482 C 533.440 713.866, 535.725 715.753, 537.919 716.704 C 540.103 717.650, 542.443 719.459, 543.120 720.723 C 544.174 722.693, 544.074 723.233, 542.425 724.480 C 539.774 726.486, 537.754 726.351, 535.230 724 C 532.642 721.589, 532 721.504, 532 723.571 C 532 727.924, 541.036 729.827, 544.345 726.171 C 547.956 722.182, 545.968 717.774, 539.266 714.909 C 535.727 713.396, 534.732 711.863, 535.681 709.388 C 536.154 708.156, 537.205 707.898, 540.150 708.293 C 544.448 708.870, 545.750 706.702, 541.750 705.630 C 537.850 704.585, 536.414 704.930, 534.009 707.490 M 572 706.456 C 572 707.505, 572.962 708, 575 708 L 578 708 578 718.083 C 578 725.172, 578.338 728.054, 579.137 727.788 C 579.900 727.533, 580.210 724.239, 580.080 717.772 L 579.886 708.135 583.193 707.818 C 589.230 707.238, 586.613 705.505, 579.250 705.206 C 573.254 704.963, 572 705.179, 572 706.456 M 618.955 707.750 C 618.407 709.263, 617.548 711.400, 617.045 712.500 C 614.781 717.456, 611.880 727.214, 612.490 727.823 C 613.276 728.609, 616 725.183, 616 723.409 C 616 722.622, 617.685 722.222, 620.825 722.263 C 625.097 722.318, 625.846 722.666, 627.356 725.298 C 630.465 730.715, 630.271 727.242, 626.908 717.304 C 622.440 704.098, 620.933 702.288, 618.955 707.750 M 655.694 705.639 C 654.484 706.850, 656.124 708, 659.059 708 L 662 708 662 718 C 662 724, 662.400 728, 663 728 C 663.600 728, 664 724, 664 718 L 664 708 667 708 C 669 708, 670 707.500, 670 706.500 C 670 705.313, 668.574 705, 663.167 705 C 659.408 705, 656.046 705.288, 655.694 705.639 M 698 716.500 L 698 728 704 728 C 707.333 728, 710 727.556, 710 727 C 710 726.450, 707.750 726, 705 726 L 700 726 700 722 L 700 718 705 718 C 711.362 718, 711.566 716.210, 705.250 715.805 C 700.546 715.503, 700.497 715.464, 700.190 711.750 L 699.879 708 704.940 708 C 708.771 708, 710 707.636, 710 706.500 C 710 705.333, 708.667 705, 704 705 L 698 705 698 716.500 M 292 712 C 292 715.580, 292.258 716, 294.453 716 C 298.045 716, 302 713.925, 302 712.039 C 302 709.391, 299.864 708, 295.800 708 C 292.033 708, 292 708.035, 292 712 M 619.243 712.984 C 617.293 719.233, 617.542 720, 621.519 720 C 624.848 720, 625.003 719.852, 624.390 717.250 C 624.033 715.737, 623.350 714.072, 622.871 713.550 C 622.392 713.028, 622 711.790, 622 710.800 C 622 707.682, 620.536 708.841, 619.243 712.984 M 381.258 711.261 C 380.725 711.942, 380.050 713.400, 379.758 714.500 C 379.466 715.600, 378.903 717.288, 378.506 718.250 C 377.889 719.750, 378.374 720, 381.893 720 C 384.802 720, 386 719.580, 386 718.559 C 386 717.766, 385.550 716.840, 385 716.500 C 384.450 716.160, 384 714.810, 384 713.500 C 384 710.665, 382.611 709.531, 381.258 711.261"/><path fill-rule="evenodd" fill="#2e3c00" stroke="none" d="M 483.240 407.750 L 483.500 456.500 555.500 456.500 L 627.500 456.500 627.530 434 L 627.560 411.500 627.261 433.750 L 626.962 456 555.462 456 L 483.962 456 484.231 407.500 C 484.379 380.825, 484.158 359, 483.740 359 C 483.323 359, 483.098 380.938, 483.240 407.750 M 514.417 391.500 C 514.418 401.950, 514.566 406.089, 514.746 400.698 C 514.926 395.307, 514.925 386.757, 514.744 381.698 C 514.563 376.639, 514.416 381.050, 514.417 391.500 M 517.415 394 C 517.415 404.175, 517.564 408.337, 517.745 403.250 C 517.927 398.162, 517.927 389.837, 517.745 384.750 C 517.564 379.662, 517.415 383.825, 517.415 394 M 588.252 406.500 C 588.263 408.700, 588.468 409.482, 588.707 408.238 C 588.946 406.994, 588.937 405.194, 588.687 404.238 C 588.437 403.282, 588.241 404.300, 588.252 406.500 M 591.232 407 C 591.232 408.925, 591.438 409.712, 591.689 408.750 C 591.941 407.788, 591.941 406.212, 591.689 405.250 C 591.438 404.288, 591.232 405.075, 591.232 407 M 651.951 412.276 C 652.438 416.396, 652.459 416.417, 652.798 413.123 C 652.989 411.265, 652.765 409.365, 652.299 408.899 C 651.833 408.433, 651.677 409.953, 651.951 412.276 M 633.231 436.244 L 633 460.988 555.250 461.250 L 477.500 461.512 555.281 461.756 C 617.408 461.951, 633.161 461.744, 633.550 460.730 C 633.818 460.032, 633.908 448.669, 633.750 435.480 L 633.462 411.500 633.231 436.244 M 514.417 434.500 C 514.418 444.950, 514.566 449.089, 514.746 443.698 C 514.926 438.307, 514.925 429.757, 514.744 424.698 C 514.563 419.639, 514.416 424.050, 514.417 434.500 M 517.417 434.500 C 517.418 444.950, 517.566 449.089, 517.746 443.698 C 517.926 438.307, 517.925 429.757, 517.744 424.698 C 517.563 419.639, 517.416 424.050, 517.417 434.500 M 588.415 434 C 588.415 444.175, 588.564 448.337, 588.745 443.250 C 588.927 438.162, 588.927 429.837, 588.745 424.750 C 588.564 419.662, 588.415 423.825, 588.415 434 M 591.415 434 C 591.415 444.175, 591.564 448.337, 591.745 443.250 C 591.927 438.162, 591.927 429.837, 591.745 424.750 C 591.564 419.662, 591.415 423.825, 591.415 434 M 441.461 491.500 C 441.461 516.800, 441.591 527.007, 441.749 514.181 C 441.908 501.356, 441.907 480.656, 441.749 468.181 C 441.590 455.707, 441.461 466.200, 441.461 491.500 M 647.221 461.731 L 655.942 462.074 656.265 474.787 L 656.587 487.500 656.544 474.500 L 656.500 461.500 647.500 461.444 L 638.500 461.388 647.221 461.731 M 468.360 475 C 468.360 480.225, 468.529 482.363, 468.735 479.750 C 468.941 477.137, 468.941 472.863, 468.735 470.250 C 468.529 467.637, 468.360 469.775, 468.360 475 M 310.500 475.202 C 301.076 478.310, 292 485.658, 292 490.180 C 292 491.181, 291.550 492, 291 492 C 290.413 492, 290 495.468, 290 500.405 C 290 509.221, 291.521 513.698, 296.382 519.194 C 299.049 522.209, 305.519 526, 307.998 526 C 309.034 526, 310.160 526.450, 310.500 527 C 310.840 527.550, 311.766 528, 312.559 528 C 313.722 528, 314 525.985, 314 517.570 L 314 507.140 318.920 501.820 C 322.738 497.691, 324.111 496.765, 325.054 497.684 C 326 498.607, 325.108 499.999, 321.017 503.984 C 318.129 506.797, 316.013 509.347, 316.317 509.650 C 316.620 509.953, 317.882 509.256, 319.122 508.101 C 321.254 506.115, 324 505.277, 324 506.611 C 324 506.947, 322.200 509.372, 320 512 C 316.376 516.328, 316 517.305, 316 522.389 C 316 528.676, 316.538 529.002, 323.132 526.704 C 331.447 523.807, 340 516.135, 340 511.573 C 340 510.773, 340.450 509.840, 341 509.500 C 341.550 509.160, 342 505.335, 342 501 C 342 496.665, 341.550 492.840, 341 492.500 C 340.450 492.160, 340 491.207, 340 490.382 C 340 486.135, 328.177 476, 323.221 476 C 322.064 476, 320.840 475.550, 320.500 475 C 319.739 473.768, 314.529 473.873, 310.500 475.202 M 514.674 486.750 C 540.070 486.898, 581.920 486.898, 607.674 486.750 C 633.428 486.601, 612.650 486.480, 561.500 486.480 C 510.350 486.480, 489.278 486.601, 514.674 486.750 M 682 486.943 C 681.175 487.397, 679.150 488.383, 677.500 489.134 C 673.665 490.880, 670.567 493.929, 668.019 498.466 C 666.463 501.236, 666 503.889, 666 510.030 C 666 514.677, 666.417 518, 667 518 C 667.550 518, 668 518.791, 668 519.757 C 668 523.553, 679.751 532, 685.030 532 C 687.888 532, 688 531.829, 688 527.446 C 688 523.765, 687.426 522.279, 685.005 519.696 C 681.801 516.278, 681.400 515, 683.024 513.376 C 683.722 512.678, 683.404 511.770, 682.024 510.521 C 680.911 509.514, 680 508.085, 680 507.345 C 680 504.825, 683.189 505.991, 686.575 509.750 C 689.894 513.434, 689.954 513.662, 689.977 522.750 C 690 531.847, 690.040 532, 692.405 532 C 698.293 532, 710 522.113, 710 517.141 C 710 516.028, 710.450 514.840, 711 514.500 C 711.550 514.160, 712 511.659, 712 508.941 C 712 506.223, 711.550 504, 711 504 C 710.450 504, 710 502.885, 710 501.522 C 710 498.445, 700.055 488, 697.124 488 C 696.021 488, 694.840 487.550, 694.500 487 C 693.764 485.808, 684.142 485.764, 682 486.943 M 556.238 489.747 L 643.977 490.011 644.256 528.755 L 644.536 567.500 644.518 528.500 L 644.500 489.500 556.500 489.492 L 468.500 489.483 556.238 489.747 M 647.456 490.253 C 647.192 490.942, 647.094 508.829, 647.238 530.003 L 647.500 568.500 667.751 568.532 L 688.001 568.564 668.001 568.261 L 648 567.959 648 529.037 L 648 490.115 652.250 489.732 L 656.500 489.349 652.219 489.175 C 649.570 489.067, 647.754 489.478, 647.456 490.253 M 468.453 529 C 468.453 549.625, 468.586 558.063, 468.749 547.750 C 468.911 537.438, 468.911 520.563, 468.749 510.250 C 468.586 499.938, 468.453 508.375, 468.453 529 M 489.750 496.732 C 492.087 496.943, 495.913 496.943, 498.250 496.732 C 500.587 496.522, 498.675 496.349, 494 496.349 C 489.325 496.349, 487.413 496.522, 489.750 496.732 M 513.200 497.200 C 512.343 498.057, 512.061 503.271, 512.214 515.450 L 512.428 532.500 512.964 515 L 513.500 497.500 521.500 496.933 L 529.500 496.367 521.950 496.183 C 517.181 496.068, 513.958 496.442, 513.200 497.200 M 546 496.936 L 554.500 497.500 555.036 515 L 555.572 532.500 555.786 515.450 C 555.939 503.271, 555.657 498.057, 554.800 497.200 C 554.031 496.431, 550.710 496.067, 545.550 496.186 L 537.500 496.373 546 496.936 M 564.652 496.750 C 564.396 497.163, 566.732 497.373, 569.843 497.217 C 579.610 496.730, 580.788 496.305, 572.809 496.150 C 568.579 496.067, 564.908 496.337, 564.652 496.750 M 485.411 515 C 485.411 524.625, 485.561 528.563, 485.745 523.750 C 485.928 518.938, 485.928 511.063, 485.745 506.250 C 485.561 501.438, 485.411 505.375, 485.411 515 M 502.411 515 C 502.411 524.625, 502.561 528.563, 502.745 523.750 C 502.928 518.938, 502.928 511.063, 502.745 506.250 C 502.561 501.438, 502.411 505.375, 502.411 515 M 581.411 515 C 581.411 524.625, 581.561 528.563, 581.745 523.750 C 581.928 518.938, 581.928 511.063, 581.745 506.250 C 581.561 501.438, 581.411 505.375, 581.411 515 M 597.450 532 C 597.450 550.975, 597.584 558.737, 597.748 549.250 C 597.913 539.763, 597.913 524.237, 597.748 514.750 C 597.584 505.262, 597.450 513.025, 597.450 532 M 515.394 500.416 C 515.095 501.194, 515.042 503.107, 515.276 504.666 C 515.639 507.088, 515.722 506.964, 515.850 503.810 C 515.992 500.316, 516.198 500.100, 519.750 499.728 L 523.500 499.336 519.719 499.168 C 517.257 499.059, 515.748 499.494, 515.394 500.416 M 543.250 499.689 C 544.212 499.941, 545.788 499.941, 546.750 499.689 C 547.712 499.438, 546.925 499.232, 545 499.232 C 543.075 499.232, 542.288 499.438, 543.250 499.689 M 568.762 499.707 C 570.006 499.946, 571.806 499.937, 572.762 499.687 C 573.718 499.437, 572.700 499.241, 570.500 499.252 C 568.300 499.263, 567.518 499.468, 568.762 499.707 M 627.447 534 C 627.447 551.875, 627.582 559.188, 627.748 550.250 C 627.914 541.313, 627.914 526.688, 627.748 517.750 C 627.582 508.813, 627.447 516.125, 627.447 534 M 568.250 506.689 C 569.212 506.941, 570.788 506.941, 571.750 506.689 C 572.712 506.438, 571.925 506.232, 570 506.232 C 568.075 506.232, 567.288 506.438, 568.250 506.689 M 515.378 520 C 515.378 526.325, 515.541 528.913, 515.739 525.750 C 515.937 522.587, 515.937 517.413, 515.739 514.250 C 515.541 511.087, 515.378 513.675, 515.378 520 M 518.250 509.689 C 519.212 509.941, 520.788 509.941, 521.750 509.689 C 522.712 509.438, 521.925 509.232, 520 509.232 C 518.075 509.232, 517.288 509.438, 518.250 509.689 M 568.750 509.706 C 569.987 509.944, 572.013 509.944, 573.250 509.706 C 574.487 509.467, 573.475 509.272, 571 509.272 C 568.525 509.272, 567.513 509.467, 568.750 509.706 M 548.349 520 C 548.349 524.675, 548.522 526.587, 548.732 524.250 C 548.943 521.913, 548.943 518.087, 548.732 515.750 C 548.522 513.413, 548.349 515.325, 548.349 520 M 566.443 521.748 L 566.500 531.500 569.500 531.645 C 572.279 531.779, 572.300 531.756, 569.785 531.332 C 567.087 530.877, 567.069 530.819, 566.728 521.435 L 566.385 511.995 566.443 521.748 M 574.349 520 C 574.349 524.675, 574.522 526.587, 574.732 524.250 C 574.943 521.913, 574.943 518.087, 574.732 515.750 C 574.522 513.413, 574.349 515.325, 574.349 520 M 420.500 539 L 399.500 539.561 420.191 539.781 C 433.148 539.918, 441.113 539.626, 441.500 539 C 441.840 538.450, 441.979 538.099, 441.809 538.219 C 441.639 538.340, 432.050 538.691, 420.500 539 M 309.250 568.689 C 310.212 568.941, 311.788 568.941, 312.750 568.689 C 313.712 568.438, 312.925 568.232, 311 568.232 C 309.075 568.232, 308.288 568.438, 309.250 568.689 M 325.250 568.746 C 330.613 568.925, 339.387 568.925, 344.750 568.746 C 350.113 568.566, 345.725 568.419, 335 568.419 C 324.275 568.419, 319.887 568.566, 325.250 568.746 M 501.822 568.750 C 519.600 568.903, 548.400 568.903, 565.822 568.749 C 583.245 568.596, 568.700 568.471, 533.500 568.471 C 498.300 568.471, 484.045 568.597, 501.822 568.750 M 603.750 568.732 C 606.087 568.943, 609.913 568.943, 612.250 568.732 C 614.587 568.522, 612.675 568.349, 608 568.349 C 603.325 568.349, 601.413 568.522, 603.750 568.732 M 619.250 568.689 C 620.212 568.941, 621.788 568.941, 622.750 568.689 C 623.712 568.438, 622.925 568.232, 621 568.232 C 619.075 568.232, 618.288 568.438, 619.250 568.689 M 636.768 568.725 C 638.565 568.947, 641.265 568.943, 642.768 568.715 C 644.271 568.486, 642.800 568.304, 639.500 568.310 C 636.200 568.315, 634.971 568.502, 636.768 568.725 M 403.330 570.750 C 457.136 570.893, 544.886 570.893, 598.330 570.750 C 651.773 570.607, 607.750 570.490, 500.500 570.490 C 393.250 570.490, 349.523 570.607, 403.330 570.750 M 454.370 635 C 454.370 640.775, 454.535 643.138, 454.737 640.250 C 454.939 637.362, 454.939 632.638, 454.737 629.750 C 454.535 626.862, 454.370 629.225, 454.370 635 M 488.370 635 C 488.370 640.775, 488.535 643.138, 488.737 640.250 C 488.939 637.362, 488.939 632.638, 488.737 629.750 C 488.535 626.862, 488.370 629.225, 488.370 635 M 536.252 629.500 C 536.263 631.700, 536.468 632.482, 536.707 631.238 C 536.946 629.994, 536.937 628.194, 536.687 627.238 C 536.437 626.282, 536.241 627.300, 536.252 629.500 M 598.272 630 C 598.272 632.475, 598.467 633.487, 598.706 632.250 C 598.944 631.013, 598.944 628.987, 598.706 627.750 C 598.467 626.513, 598.272 627.525, 598.272 630 M 401.378 641 C 401.378 647.325, 401.541 649.913, 401.739 646.750 C 401.937 643.587, 401.937 638.413, 401.739 635.250 C 401.541 632.087, 401.378 634.675, 401.378 641 M 531.320 640 C 531.320 643.575, 531.502 645.038, 531.723 643.250 C 531.945 641.462, 531.945 638.538, 531.723 636.750 C 531.502 634.962, 531.320 636.425, 531.320 640 M 593.320 640 C 593.320 643.575, 593.502 645.038, 593.723 643.250 C 593.945 641.462, 593.945 638.538, 593.723 636.750 C 593.502 634.962, 593.320 636.425, 593.320 640 M 536.232 646 C 536.232 647.925, 536.438 648.712, 536.689 647.750 C 536.941 646.788, 536.941 645.212, 536.689 644.250 C 536.438 643.288, 536.232 644.075, 536.232 646 M 598.232 646 C 598.232 647.925, 598.438 648.712, 598.689 647.750 C 598.941 646.788, 598.941 645.212, 598.689 644.250 C 598.438 643.288, 598.232 644.075, 598.232 646 M 333.378 717 C 333.378 723.325, 333.541 725.913, 333.739 722.750 C 333.937 719.587, 333.937 714.413, 333.739 711.250 C 333.541 708.087, 333.378 710.675, 333.378 717 M 490.360 715 C 490.360 720.225, 490.529 722.362, 490.735 719.750 C 490.941 717.138, 490.941 712.862, 490.735 710.250 C 490.529 707.638, 490.360 709.775, 490.360 715 M 580.349 718 C 580.349 722.675, 580.522 724.587, 580.732 722.250 C 580.943 719.913, 580.943 716.087, 580.732 713.750 C 580.522 711.413, 580.349 713.325, 580.349 718 M 293.250 715.689 C 294.212 715.941, 295.788 715.941, 296.750 715.689 C 297.712 715.438, 296.925 715.232, 295 715.232 C 293.075 715.232, 292.288 715.438, 293.250 715.689 M 339.250 715.689 C 340.212 715.941, 341.788 715.941, 342.750 715.689 C 343.712 715.438, 342.925 715.232, 341 715.232 C 339.075 715.232, 338.288 715.438, 339.250 715.689 M 496.762 715.707 C 498.006 715.946, 499.806 715.937, 500.762 715.687 C 501.718 715.437, 500.700 715.241, 498.500 715.252 C 496.300 715.263, 495.518 715.468, 496.762 715.707 M 702.750 715.706 C 703.987 715.944, 706.013 715.944, 707.250 715.706 C 708.487 715.467, 707.475 715.272, 705 715.272 C 702.525 715.272, 701.513 715.467, 702.750 715.706"/></svg>